<svg width="24" height="24" viewBox="0 0 24 24" fill="none" xmlns="http://www.w3.org/2000/svg">
    <path d="M5.52377 7C9.41427 5.74386 13.9724 5.45573 16 5.5C18.0276 5.54427 18.8831 6.2663 19.5 7.5C20.5 9.5 20.289 14.4881 18.5 16.0871C16.712 17.6861 9.33015 17.8381 6.87015 16.0871C4.27115 14.2361 5.629 9.192 5.544 5.743C5.595 3.813 3.5 3.5 3.5 3.5" stroke="#5E697B" stroke-width="1.5" stroke-linecap="round" stroke-linejoin="round"/>
    <path d="M13 10.5H15.773" stroke="#5E697B" stroke-width="1.5" stroke-linecap="round" stroke-linejoin="round"/>
    <path fill-rule="evenodd" clip-rule="evenodd" d="M7.26375 20.1274C7.56375 20.1274 7.80775 20.3714 7.80775 20.6714C7.80775 20.9724 7.56375 21.2164 7.26375 21.2164C6.96275 21.2164 6.71875 20.9724 6.71875 20.6714C6.71875 20.3714 6.96275 20.1274 7.26375 20.1274Z" fill="#5E697B" stroke="#5E697B" stroke-width="1.5" stroke-linecap="round" stroke-linejoin="round"/>
    <path fill-rule="evenodd" clip-rule="evenodd" d="M17.5958 20.1274C17.8968 20.1274 18.1408 20.3714 18.1408 20.6714C18.1408 20.9724 17.8968 21.2164 17.5958 21.2164C17.2958 21.2164 17.0518 20.9724 17.0518 20.6714C17.0518 20.3714 17.2958 20.1274 17.5958 20.1274Z" fill="#5E697B" stroke="#5E697B" stroke-width="1.5" stroke-linecap="round" stroke-linejoin="round"/>
</svg>


