<svg width="86" height="48" viewBox="0 0 86 48" fill="none" xmlns="http://www.w3.org/2000/svg">
    <path fill-rule="evenodd" clip-rule="evenodd" d="M38.4658 12.0954C41.2437 13.031 43.2706 14.4741 47.5316 18.5503C49.8462 20.7644 50.9967 21.6448 52.6461 22.4642C55.557 23.9103 57.8761 23.3516 59.3798 20.8421C59.8908 19.9893 60.7056 17.4526 60.7056 16.7147C60.7056 16.2583 60.6167 16.2105 59.7674 16.2105C58.0734 16.2105 56.7579 15.8128 56.1786 15.1253C55.8863 14.7781 55.6468 14.2882 55.6468 14.0364C55.6468 13.5964 55.7172 13.5815 57.4912 13.6476C58.7761 13.6954 59.5744 13.8375 60.1226 14.1162C60.9019 14.512 60.9171 14.5118 61.6493 14.0802C62.2446 13.7295 62.5867 13.6714 63.4012 13.7834C64.0763 13.876 64.7133 13.8192 65.3138 13.6124C66.1108 13.3383 66.2284 13.339 66.3355 13.6179C66.5144 14.0834 65.8659 15.2922 65.204 15.7265C64.8185 15.9796 64.0636 16.1402 62.9298 16.2105L61.2326 16.3158L61.2798 17.1579C61.3597 18.5865 60.9272 22.1741 60.4917 23.6954C59.9767 25.4935 59.5242 25.9838 58.4018 25.9592C57.5272 25.94 56.1953 25.2655 55.9931 24.7396C55.9029 24.5048 55.7372 24.5737 55.2706 25.0398C54.0695 26.2394 52.1465 26.2895 50.9189 25.1531L50.3445 24.6215L49.7189 25.1474C48.3939 26.2611 46.676 26.2554 45.5039 25.1337L44.9198 24.5747L44.2813 25.1114C42.8644 26.3023 41.0936 26.2891 39.8995 25.0787L39.3142 24.4857L38.771 25.0667C37.9559 25.9381 36.637 26.228 35.4851 25.7884C34.9805 25.596 34.4312 25.244 34.2642 25.0059C33.9615 24.5741 33.9594 24.5743 33.3064 25.1232C31.9713 26.2453 30.1004 26.26 29.0524 25.1564C28.4413 24.5128 28.3949 24.5128 27.7002 25.1558C27.1224 25.6907 25.7953 26.1796 25.4688 25.9779C25.0972 25.7484 24.4821 24.2621 24.2307 22.9861C23.2975 18.2484 26.5423 13.0011 31.2173 11.6876C32.9854 11.191 36.3413 11.3796 38.4658 12.0954ZM27.9036 14.8642C29.065 13.6821 30.3881 12.9387 31.856 12.6436C32.9761 12.4183 33.7225 12.4545 33.7845 12.7368C33.8098 12.8526 33.307 13.0036 32.6673 13.0724C32.0274 13.1411 31.1263 13.3758 30.6649 13.5941C29.7918 14.007 28.0096 15.6448 27.2455 16.7364C27.0025 17.0836 26.7439 17.308 26.6709 17.235C26.3598 16.9242 26.8994 15.8861 27.9036 14.8642ZM30.9593 22.2745C30.3449 22.3457 30.0464 21.8956 30.2606 21.2213C30.3529 20.9312 30.5468 20.8358 30.9505 20.8825C31.4195 20.9366 31.512 21.0514 31.512 21.579C31.512 22.1038 31.4186 22.2213 30.9593 22.2745Z" fill="white"/>
    <path d="M33.0284 4.08674C33.5878 4.56716 33.6239 4.704 33.693 6.61305C33.7788 8.98421 33.7493 9.00569 31.8233 7.98042C30.2785 7.15811 29.6986 6.54337 29.6746 5.70274C29.6225 3.86716 31.6404 2.89495 33.0284 4.08674Z" fill="white"/>
    <path d="M36.9639 0.436421C37.3939 0.774105 37.5194 1.05768 37.5194 1.69221C37.5194 2.39474 37.3769 2.648 36.5196 3.46842C35.5896 4.35853 34.8681 4.79053 34.6594 4.58211C34.518 4.44084 34.1468 2.31474 34.1468 1.64589C34.1468 0.839578 34.9876 0 35.7952 0C36.1326 0 36.6585 0.196421 36.9639 0.436421Z" fill="white"/>
    <path d="M37.9327 5.51347C38.3553 5.96632 38.4856 6.80295 38.2354 7.45453C38.1016 7.80253 35.8415 9.26316 35.4366 9.26316C35.2834 9.26316 35.2007 8.70611 35.2007 7.67474C35.2007 6.26884 35.2602 6.02674 35.7182 5.56948C36.3763 4.912 37.3488 4.88737 37.9327 5.51347Z" fill="white"/>
    <path d="M2.91953 32.7032C3.64252 33.4718 3.83517 34.3929 3.97787 37.7644L4.11046 40.8973L4.9829 40.0505C6.22125 38.8484 7.52327 36.8543 8.14276 35.2107C9.12017 32.6171 9.51539 32.208 10.5352 32.7347C11.8483 33.4128 11.919 36.0248 10.6766 37.9644C9.92136 39.1436 8.10882 40.8819 7.08083 41.4128L6.44173 41.743L7.53465 42.2248C10.9458 43.7282 12.3313 45.9021 10.7339 47.2444C9.50612 48.2764 8.81074 48.0025 7.307 45.8947C6.63059 44.9463 4.40787 43.5276 4.09233 43.8425C4.01055 43.9244 3.8649 44.4884 3.76857 45.0962C3.4448 47.1417 1.76127 47.6175 0.855316 45.9194C0.413512 45.0912 0.0151296 42.3455 0.011757 40.1053C0.00606584 36.327 0.635678 33.412 1.62552 32.6343C2.30361 32.1015 2.3561 32.1042 2.91953 32.7032Z" fill="white"/>
    <path d="M15.3507 37.859C15.8819 39.0343 15.8659 45.7712 15.3299 46.5882C14.8919 47.2558 14.1406 47.3383 13.6301 46.7747C13.1082 46.1987 12.8298 44.3939 12.8285 41.579C12.8272 38.8396 13.0205 37.8815 13.7252 37.1324C14.3059 36.5152 14.8541 36.7602 15.3507 37.859Z" fill="white"/>
    <path d="M15.0637 33.8863C15.8501 34.7543 14.8204 36.1703 13.9499 35.4179C13.3445 34.895 13.1984 34.2164 13.6036 33.8116C14.0584 33.3575 14.61 33.3857 15.0637 33.8863Z" fill="white"/>
    <path fill-rule="evenodd" clip-rule="evenodd" d="M28.7518 33.7762C29.3774 35.0931 29.7612 38.5695 29.671 42.1053C29.5856 45.4596 29.4179 46.2196 28.6588 46.6931C28.2143 46.9703 27.3539 46.7461 27.059 46.2762C26.9637 46.1242 26.7367 45.3931 26.5546 44.6514L26.2234 43.3027L25.5299 44.3825C22.8926 48.4874 18.2872 48.7855 17.1631 44.9238C16.3566 42.1526 17.6586 39.215 20.2938 37.8613C21.4989 37.2421 24.0306 37.0821 25.1602 37.5535C25.6065 37.7396 26.0421 37.8482 26.1288 37.795C26.2152 37.7415 26.345 37.0665 26.4171 36.2947C26.6791 33.4926 27.9603 32.1105 28.7518 33.7762ZM20.6446 42.5935C20.9789 41.2676 21.4515 40.6337 22.4398 40.1853C23.4189 39.7411 23.8443 39.7091 24.8727 40.0019C26.2274 40.3878 26.2624 40.4773 25.5011 41.6078C23.5616 44.4878 21.4019 45.6246 20.6914 44.1394C20.4648 43.6659 20.4551 43.3455 20.6446 42.5935Z" fill="white"/>
    <path fill-rule="evenodd" clip-rule="evenodd" d="M35.6722 33.2105C35.8511 33.413 36.063 33.8867 36.1431 34.2631C36.2232 34.6396 36.3191 34.9474 36.3562 34.9474C36.3933 34.9474 36.9042 34.6242 37.4917 34.2295C39.2736 33.0318 41.2915 32.8356 43.0003 33.6937C45.9924 35.1966 46.469 39.8821 43.8831 42.373C41.9997 44.1874 39.8784 44.661 37.0457 43.8996C36.4677 43.7442 36.466 43.7471 36.466 44.8356C36.466 45.7612 36.3724 46.0206 35.8499 46.5425C34.7837 47.6073 33.367 47.2318 32.733 45.7162C31.9795 43.9149 32.2094 37.2248 33.1059 34.8652C33.7943 33.0532 34.9022 32.3387 35.6722 33.2105ZM36.466 39.0604C36.466 38.6465 38.5026 36.6421 39.2553 36.3153C40.2873 35.8676 41.1705 35.925 41.6837 36.4737C43.3304 38.233 40.9983 41.3924 38.6265 40.616C37.6934 40.3105 36.466 39.4267 36.466 39.0604Z" fill="white"/>
    <path fill-rule="evenodd" clip-rule="evenodd" d="M53.4651 33.9097C54.4613 34.3914 55.2258 35.4286 55.2258 36.2985C55.2258 36.609 55.3881 37.1661 55.5867 37.5368C56.1237 38.54 56.0632 41.1935 55.4621 42.9855C54.6156 45.5095 53.2181 46.9389 51.4294 47.1105C48.4217 47.3991 46.5946 45.2535 46.4154 41.2221C46.2858 38.3036 46.8271 36.5697 48.3374 35.0674C49.9438 33.4692 51.7234 33.0676 53.4651 33.9097ZM50.6315 40.2246C50.7209 38.4516 51.0449 37.4459 51.806 36.5789C52.1195 36.2219 53.1211 36.0732 53.3918 36.3438C53.4651 36.417 53.2912 36.6606 53.0054 36.8852C52.0803 37.6122 52.5128 38.9802 53.8131 39.4396C54.1238 39.5492 54.1668 39.7162 54.0524 40.3657C53.8799 41.3452 53.2166 42.9107 52.7611 43.4132C52.1576 44.0791 51.4913 43.8892 50.9905 42.9088C50.6065 42.1572 50.554 41.7642 50.6315 40.2246Z" fill="white"/>
    <path d="M59.318 37.0326C60.0317 37.8204 60.2857 39.2903 60.2635 42.5071C60.2395 46.0316 60.1615 46.4421 59.4101 47.0025C58.9554 47.3415 58.7824 47.3688 58.396 47.1625C57.5729 46.7223 57.2837 45.6 57.1745 42.421C57.0657 39.2612 57.2409 38.1265 57.982 37.1855C58.4999 36.5278 58.8268 36.4905 59.318 37.0326Z" fill="white"/>
    <path d="M59.5319 33.8044C59.9615 34.2335 59.9539 34.9194 59.5142 35.4044C59.0813 35.8821 58.6418 35.8939 58.1407 35.441C57.7 35.0427 57.6155 33.7756 58.0187 33.613C58.5503 33.3987 59.209 33.4821 59.5319 33.8044Z" fill="white"/>
    <path d="M71.2271 33.8469C72.8259 35.032 73.6686 37.6775 73.6564 41.4737C73.6429 45.7196 72.9325 47.4688 71.28 47.3261C69.9084 47.2078 69.7689 46.7577 69.6923 42.2061C69.6211 37.9865 69.3502 36.3492 68.7428 36.4661C68.243 36.5623 67.1153 38.1705 66.6014 39.5196C66.2726 40.3831 66.0848 41.5187 65.9554 43.4274C65.7547 46.3884 65.5977 46.8756 64.7777 47.081C63.3189 47.4469 62.4007 45.5815 61.7355 40.8991C61.4587 38.9514 61.6088 35.9238 62.0316 34.9255C62.9772 32.6926 65.0142 33.2206 65.4526 35.8122L65.5972 36.6674L66.2867 35.6495C67.0734 34.4878 67.5053 34.0657 68.4002 33.5834C69.1804 33.1629 70.4661 33.2829 71.2271 33.8469Z" fill="white"/>
    <path d="M79.0181 33.8684C79.2354 34.0855 79.45 34.3732 79.4949 34.5076C79.5566 34.6924 80.1913 34.6949 82.0987 34.5177C84.5771 34.2874 84.6275 34.2911 84.9944 34.7438C85.4632 35.3221 85.474 36.1655 85.0191 36.6676C84.7202 36.9975 84.3279 37.0526 82.2789 37.0526H79.8876L79.8926 39.7368C79.8954 41.213 79.9849 42.7975 80.0918 43.2575C80.4546 44.8202 81.5049 44.984 82.8232 43.6836C83.4336 43.0815 83.5693 42.769 83.6994 41.6671C83.8452 40.4324 84.3513 39.3911 84.8933 39.2107C85.0239 39.1671 85.3264 39.3269 85.5657 39.5659C85.9253 39.925 85.9999 40.2636 85.9984 41.5263C85.9967 42.8248 85.9048 43.2122 85.3825 44.1217C84.2424 46.1069 82.6322 47.1579 80.7307 47.1579C79.317 47.1579 78.4365 46.7623 77.5517 45.7301C76.3352 44.3105 75.6854 41.76 75.6761 38.3684C75.6734 37.3448 75.5905 36.8421 75.425 36.8421C75.0317 36.8421 74.4072 36.1806 74.4072 35.7642C74.4072 35.3324 75.0035 34.9474 75.6721 34.9474C75.9195 34.9474 76.4349 34.6158 76.8175 34.2105C77.609 33.3724 78.3986 33.2497 79.0181 33.8684Z" fill="white"/>
</svg>

