<svg width="691" height="174" viewBox="0 0 691 174" fill="none" xmlns="http://www.w3.org/2000/svg">
    <g clip-path="url(#clip0)">
        <path d="M211.884 138.487C206.001 140.4 199.687 137.167 197.798 131.277L155.217 0.246826L111.731 14.3708L117.861 33.2294L126.982 30.2673L166.995 153.396C172.083 169.048 188.898 177.614 204.552 172.528L231.867 163.654L222.562 135.02L211.884 138.487L211.884 138.487Z" fill="#FF5859"/>
        <path d="M63.6408 141.516C46.626 141.516 35.4354 128.063 35.4354 109.74C35.4354 90.2514 46.853 77.9526 63.6408 77.9526C80.4265 77.9526 91.8457 90.948 91.8457 109.74C91.8457 128.53 80.4265 141.516 63.6408 141.516ZM124.562 84.2157C121.966 76.3859 118.07 69.4911 112.823 63.5764C102.568 51.5027 89.4361 45.4809 72.8907 45.4809C55.4081 45.4809 43.5876 53.8332 37.9903 62.4123H36.1302V0H0V174H36.1302V157.054H37.5359C41.2579 162.863 51.2831 174 71.7925 174C88.5787 174 102.101 168.191 112.596 156.599C123.076 144.994 128.446 129.683 128.446 110.435C128.446 100.813 127.16 92.0455 124.562 84.2157Z" fill="#FF5859"/>
        <path d="M293.49 141.516C276.475 141.516 265.283 128.063 265.283 109.74C265.283 90.2513 276.702 77.9525 293.49 77.9525C310.276 77.9525 321.693 90.9478 321.693 109.74C321.693 128.53 310.276 141.516 293.49 141.516ZM341.159 64.0304C328.802 51.7433 312.952 45.4807 293.609 45.4807C253.985 45.4807 227.171 73.5484 227.171 109.74C227.171 145.464 254.214 173.999 293.38 173.999C332.766 173.999 359.807 145.931 359.807 109.74C359.807 91.4037 353.515 76.3325 341.159 64.0304Z" fill="#FF5859"/>
        <path d="M435.156 141.516C418.143 141.516 406.95 128.063 406.95 109.74C406.95 90.2513 418.369 77.9525 435.156 77.9525C451.943 77.9525 463.361 90.9478 463.361 109.74C463.361 128.53 451.943 141.516 435.156 141.516ZM482.827 64.0304C470.469 51.7433 454.62 45.4807 435.277 45.4807C395.652 45.4807 368.839 73.5484 368.839 109.74C368.839 145.464 395.879 173.999 435.034 173.999C474.432 173.999 501.472 145.931 501.472 109.74C501.472 91.4037 495.18 76.3325 482.827 64.0304Z" fill="#FF5859"/>
        <path d="M678.988 57.8303C671.055 49.5146 660.401 45.4766 647.48 45.4766C632.748 45.4766 621.187 51.1778 612.8 62.5804H611.214C603.509 51.1778 593.784 45.4766 578.369 45.4766C563.637 45.4766 553.958 52.7118 548.291 62.2127H546.478L546.476 45.4766H510.347L510.346 173.995H546.476L546.478 108.087C546.478 94.5458 552.942 84.2779 564.544 84.0938C576.327 83.9064 582.61 94.7843 582.61 108.087L582.608 173.995H618.468L618.74 108.087C618.74 94.0705 625.72 84.0938 637.28 84.0938C649.068 84.0938 654.87 93.8315 654.87 108.087L654.818 173.995H691.001V89.662C691.001 76.5968 686.923 66.1431 678.988 57.8303H678.988Z" fill="#FF5859"/>
    </g>
    <defs>
        <clipPath id="clip0">
            <rect width="691" height="174" fill="white"/>
        </clipPath>
    </defs>
</svg>

