<svg width="120" height="68" viewBox="0 0 120 68" fill="none" xmlns="http://www.w3.org/2000/svg">
    <path fill-rule="evenodd" clip-rule="evenodd" d="M53.6736 17.1351C57.5498 18.4605 60.378 20.505 66.3236 26.2796C69.5533 29.4163 71.1586 30.6635 73.4601 31.8243C77.5219 33.8729 80.7577 33.0814 82.856 29.5263C83.5689 28.3181 84.706 24.7246 84.706 23.6792C84.706 23.0326 84.5819 22.9649 83.3969 22.9649C81.033 22.9649 79.1974 22.4015 78.3892 21.4275C77.9813 20.9357 77.6471 20.2416 77.6471 19.8849C77.6471 19.2616 77.7454 19.2404 80.2207 19.3341C82.0136 19.4018 83.1274 19.6031 83.8924 19.998C84.9798 20.5587 85.001 20.5584 86.0227 19.947C86.8533 19.4501 87.3307 19.3678 88.4671 19.5264C89.4092 19.6577 90.298 19.5771 91.136 19.2843C92.248 18.896 92.4122 18.8968 92.5616 19.292C92.8113 19.9514 91.9063 21.664 90.9827 22.2792C90.4448 22.6377 89.3916 22.8653 87.8095 22.9649L85.4413 23.114L85.5071 24.307C85.6186 26.3309 85.0151 31.4133 84.4074 33.5684C83.6889 36.1158 83.0574 36.8104 81.4913 36.7755C80.271 36.7483 78.4124 35.7928 78.1304 35.0477C78.0045 34.7152 77.7733 34.8127 77.1222 35.473C75.4463 37.1724 72.763 37.2434 71.0501 35.6335L70.2486 34.8804L69.3757 35.6255C67.5269 37.2032 65.1298 37.1951 63.4942 35.6061L62.6792 34.8142L61.7883 35.5744C59.8113 37.2616 57.3404 37.2428 55.6742 35.5282L54.8574 34.6881L54.0995 35.5112C52.9621 36.7457 51.1219 37.1563 49.5145 36.5336C48.8104 36.261 48.0439 35.7623 47.811 35.425C47.3886 34.8133 47.3857 34.8136 46.4745 35.5911C44.6116 37.1808 42.001 37.2017 40.5386 35.6383C39.686 34.7265 39.6213 34.7265 38.6519 35.6374C37.8457 36.3952 35.9939 37.0877 35.5383 36.802C35.0198 36.4769 34.1616 34.3713 33.8107 32.5637C32.5086 25.8519 37.0363 18.4182 43.5595 16.5574C46.0266 15.8538 50.7092 16.1211 53.6736 17.1351ZM38.9357 21.0576C40.5563 19.383 42.4024 18.3299 44.4507 17.9117C46.0136 17.5926 47.0551 17.6439 47.1416 18.0439C47.1769 18.2079 46.4754 18.4217 45.5827 18.5193C44.6898 18.6165 43.4324 18.949 42.7886 19.2583C41.5704 19.8432 39.0836 22.1635 38.0174 23.7099C37.6783 24.2017 37.3174 24.5197 37.2157 24.4162C36.7816 23.976 37.5345 22.5053 38.9357 21.0576ZM43.1995 31.5556C42.3421 31.6564 41.9257 31.0187 42.2245 30.0635C42.3533 29.6525 42.6239 29.5174 43.1872 29.5836C43.8416 29.6602 43.9707 29.8228 43.9707 30.5702C43.9707 31.3137 43.8404 31.4801 43.1995 31.5556Z" fill="#6C98B1"/>
    <path d="M46.0866 5.78955C46.8672 6.47014 46.9174 6.664 47.0139 9.36849C47.1336 12.7276 47.0924 12.7581 44.4051 11.3056C42.2495 10.1407 41.4404 9.26977 41.4069 8.07888C41.3342 5.47847 44.1498 4.10118 46.0866 5.78955Z" fill="#6C98B1"/>
    <path d="M51.578 0.618263C52.178 1.09665 52.353 1.49838 52.353 2.3973C52.353 3.39254 52.1542 3.75134 50.958 4.9136C49.6604 6.17458 48.6536 6.78658 48.3624 6.49132C48.1651 6.29119 47.6472 3.27921 47.6472 2.33168C47.6472 1.1894 48.8204 0 49.9472 0C50.418 0 51.1519 0.278263 51.578 0.618263Z" fill="#6C98B1"/>
    <path d="M52.9298 7.81075C53.5195 8.45228 53.7013 9.63751 53.3521 10.5606C53.1654 11.0536 50.0119 13.1228 49.4469 13.1228C49.233 13.1228 49.1177 12.3337 49.1177 10.8725C49.1177 8.88086 49.2007 8.53788 49.8398 7.89009C50.758 6.95867 52.1151 6.92377 52.9298 7.81075Z" fill="#6C98B1"/>
    <path d="M4.07401 46.3296C5.08283 47.4185 5.35165 48.7233 5.55077 53.4997L5.73577 57.9379L6.95313 56.7384C8.68107 55.0354 10.4978 52.2104 11.3622 49.882C12.7261 46.2076 13.2775 45.6281 14.7005 46.3743C16.5328 47.335 16.6314 51.0353 14.8978 53.783C13.844 55.4535 11.3149 57.9161 9.88048 58.6683L8.98871 59.1359L10.5137 59.8186C15.2734 61.9484 17.2067 65.0281 14.9778 66.9297C13.2646 68.3917 12.2943 68.0037 10.1961 65.0177C9.25224 63.6741 6.15077 61.6642 5.71048 62.1104C5.59636 62.2264 5.39313 63.0254 5.25871 63.8864C4.80695 66.7842 2.45783 67.4582 1.19371 65.0525C0.577243 63.8792 0.0213608 59.9895 0.016655 56.8159C0.00871378 51.4633 0.887243 47.3338 2.26842 46.2321C3.2146 45.4772 3.28783 45.4811 4.07401 46.3296Z" fill="#6C98B1"/>
    <path d="M21.4199 53.6336C22.1611 55.2987 22.1387 64.8426 21.3908 66.0001C20.7796 66.9458 19.7314 67.0627 19.019 66.2643C18.2908 65.4483 17.9022 62.8915 17.9005 58.9036C17.8987 55.0228 18.1684 53.6655 19.1517 52.6044C19.9619 51.7299 20.7269 52.0771 21.4199 53.6336Z" fill="#6C98B1"/>
    <path d="M21.0193 48.0057C22.1167 49.2354 20.6799 51.2414 19.4652 50.1755C18.6205 49.4346 18.4167 48.4734 18.9819 47.8998C19.6167 47.2565 20.3864 47.2965 21.0193 48.0057Z" fill="#6C98B1"/>
    <path fill-rule="evenodd" clip-rule="evenodd" d="M40.119 47.8497C40.9919 49.7153 41.5275 54.6402 41.4016 59.6492C41.2825 64.4012 41.0484 65.4778 39.9893 66.1486C39.369 66.5414 38.1684 66.2238 37.7569 65.5581C37.624 65.3427 37.3072 64.3069 37.0531 63.2562L36.5911 61.3456L35.6234 62.8753C31.9434 68.6905 25.5172 69.1129 23.9487 63.6421C22.8234 59.7163 24.6402 55.5546 28.3172 53.6369C29.9987 52.7598 33.5314 52.5331 35.1075 53.2009C35.7302 53.4645 36.3381 53.6184 36.459 53.543C36.5796 53.4672 36.7608 52.511 36.8614 51.4177C37.2269 47.448 39.0146 45.49 40.119 47.8497ZM28.8066 60.3409C29.2731 58.4625 29.9325 57.5645 31.3116 56.9292C32.6778 56.2999 33.2714 56.2546 34.7064 56.6695C36.5966 57.2161 36.6455 57.3429 35.5831 58.9445C32.8769 63.0245 29.8634 64.635 28.8719 62.5309C28.5558 61.8601 28.5422 61.4062 28.8066 60.3409Z" fill="#6C98B1"/>
    <path fill-rule="evenodd" clip-rule="evenodd" d="M49.7749 47.0483C50.0246 47.3353 50.3202 48.0063 50.4319 48.5396C50.5437 49.0728 50.6775 49.5089 50.7293 49.5089C50.7811 49.5089 51.494 49.0511 52.3137 48.4919C54.8002 46.7951 57.6158 46.5172 60.0002 47.7328C64.1752 49.862 64.8402 56.4997 61.2319 60.0286C58.604 62.5989 55.644 63.2699 51.6914 62.1912C50.8849 61.9711 50.8825 61.9752 50.8825 63.5172C50.8825 64.8285 50.7519 65.196 50.0228 65.9353C48.5352 67.4439 46.5584 66.9118 45.6737 64.7647C44.6222 62.2129 44.9431 52.7353 46.194 49.3926C47.1546 46.8256 48.7005 45.8133 49.7749 47.0483ZM50.8825 55.3357C50.8825 54.7493 53.7243 51.9097 54.7746 51.4469C56.2146 50.8125 57.4469 50.8939 58.1631 51.6712C60.4608 54.1636 57.2067 58.6394 53.8972 57.5394C52.5952 57.1067 50.8825 55.8546 50.8825 55.3357Z" fill="#E4D6B9"/>
    <path fill-rule="evenodd" clip-rule="evenodd" d="M74.6022 48.0388C75.9922 48.7212 77.059 50.1907 77.059 51.423C77.059 51.8629 77.2855 52.6521 77.5625 53.1773C78.312 54.5984 78.2275 58.3575 77.3887 60.8962C76.2075 64.4718 74.2575 66.4969 71.7617 66.74C67.5649 67.1489 65.0155 64.1092 64.7655 58.3981C64.5846 54.2635 65.3399 51.8072 67.4472 49.6789C69.6887 47.4149 72.1719 46.8458 74.6022 48.0388ZM70.6484 56.985C70.7731 54.4732 71.2252 53.0484 72.2872 51.8203C72.7246 51.3144 74.1222 51.1039 74.4999 51.4871C74.6022 51.5909 74.3596 51.936 73.9608 52.2542C72.6699 53.2841 73.2734 55.2221 75.0878 55.8728C75.5214 56.0282 75.5814 56.2647 75.4217 57.1848C75.1811 58.5726 74.2555 60.7903 73.6199 61.5022C72.7778 62.4456 71.8481 62.1765 71.1493 60.7876C70.6134 59.7229 70.5402 59.1661 70.6484 56.985Z" fill="#E4D6B9"/>
    <path d="M82.769 52.463C83.7649 53.579 84.1193 55.6614 84.0884 60.2186C84.0549 65.2115 83.9461 65.7931 82.8975 66.587C82.2631 67.0672 82.0217 67.106 81.4825 66.8137C80.334 66.19 79.9305 64.6001 79.7781 60.0966C79.6264 55.6202 79.8708 54.0127 80.9049 52.6795C81.6275 51.7478 82.0837 51.695 82.769 52.463Z" fill="#E4D6B9"/>
    <path d="M83.0675 47.8897C83.6669 48.4975 83.6564 49.4692 83.0428 50.1564C82.4387 50.8331 81.8255 50.8498 81.1264 50.2083C80.5114 49.644 80.3934 47.8488 80.9561 47.6186C81.6978 47.315 82.6169 47.4331 83.0675 47.8897Z" fill="#E4D6B9"/>
    <path d="M99.3864 47.9499C101.617 49.6288 102.793 53.3765 102.776 58.7545C102.757 64.7695 101.766 67.2476 99.4602 67.0454C97.5464 66.8778 97.3517 66.2401 97.2449 59.7921C97.1455 53.8143 96.7675 51.4949 95.9199 51.6604C95.2225 51.7967 93.649 54.075 92.9319 55.9862C92.4731 57.2096 92.2111 58.8183 92.0305 61.5222C91.7505 65.717 91.5314 66.4072 90.3872 66.6983C88.3517 67.2166 87.0705 64.5738 86.1422 57.9406C85.7561 55.1812 85.9655 50.8921 86.5555 49.4779C87.8749 46.3147 90.7172 47.0627 91.329 50.7341L91.5308 51.9455L92.4928 50.5035C93.5905 48.8578 94.1931 48.2598 95.442 47.5765C96.5305 46.9809 98.3246 47.1509 99.3864 47.9499Z" fill="#E4D6B9"/>
    <path d="M110.258 47.9804C110.561 48.2879 110.86 48.6956 110.923 48.8858C111.009 49.1477 111.895 49.1513 114.556 48.9002C118.014 48.5739 118.085 48.5792 118.597 49.2205C119.251 50.0397 119.266 51.2345 118.631 51.9458C118.214 52.4132 117.667 52.4913 114.808 52.4913H111.471L111.478 56.294C111.482 58.3853 111.607 60.6298 111.756 61.2815C112.262 63.4954 113.728 63.7274 115.567 61.8852C116.419 61.0322 116.608 60.5896 116.79 59.0286C116.993 57.2794 117.699 55.8042 118.455 55.5486C118.638 55.4869 119.06 55.7133 119.394 56.0518C119.895 56.5606 120 57.0402 119.998 58.829C119.995 60.6686 119.867 61.2174 119.138 62.5058C117.547 65.3183 115.3 66.8071 112.647 66.8071C110.675 66.8071 109.446 66.2467 108.211 64.7844C106.514 62.7733 105.607 59.1601 105.594 54.3554C105.59 52.9053 105.475 52.1931 105.244 52.1931C104.695 52.1931 103.824 51.256 103.824 50.6661C103.824 50.0544 104.656 49.5089 105.589 49.5089C105.934 49.5089 106.653 49.0391 107.187 48.465C108.291 47.2777 109.393 47.1038 110.258 47.9804Z" fill="#E4D6B9"/>
</svg>
