<svg width="24" height="24" viewBox="0 0 24 24" fill="none" xmlns="http://www.w3.org/2000/svg">
<path fill-rule="evenodd" clip-rule="evenodd" d="M0.481982 0.0596009C0.348624 0.141691 0.256462 0.251241 0.213305 0.379043C0.18628 0.459 0.176704 2.82077 0.176704 9.40333C0.176704 19.225 0.161215 18.4616 0.373432 19.0971C0.504605 19.4899 0.677649 19.8347 0.933055 20.212C1.9997 21.7881 3.89425 22.8828 6.61537 23.4953C7.61177 23.7195 8.59267 23.8546 9.9938 23.9604C10.6932 24.0132 13.2711 24.0132 14.0106 23.9604C15.6946 23.8403 17.0422 23.6226 18.2789 23.2711C21.2554 22.425 23.1733 20.8396 23.7388 18.7577L23.8109 18.4919L23.8197 9.48223C23.8282 0.651372 23.8271 0.46983 23.7666 0.334064C23.6746 0.127866 23.4804 0 23.2593 0C23.0349 0 22.8576 0.0897038 22.7432 0.261084L22.6548 0.393505L22.6384 4.37774C22.6294 6.56905 22.6186 8.3452 22.6143 8.32475C22.602 8.26549 22.1344 7.58867 21.9247 7.32666C20.5212 5.57291 18.4517 4.40511 15.778 3.85806C14.0151 3.49737 11.7843 3.40725 9.801 3.6166C6.04167 4.01345 3.28791 5.47085 1.6289 7.94156C1.5018 8.13084 1.39435 8.30286 1.3901 8.32382C1.38583 8.34481 1.375 6.56905 1.366 4.37774L1.34961 0.393505L1.26121 0.261084C1.21259 0.188263 1.11555 0.0997381 1.04559 0.0643471C0.880097 -0.019368 0.613862 -0.0215977 0.481982 0.0596009ZM16.9349 10.864C18.3172 11.0205 19.496 11.771 20.2351 12.965C20.7287 13.7625 20.9548 14.8028 20.8375 15.7372C20.7093 16.7584 20.2903 17.6076 19.5519 18.3429C18.8551 19.0368 17.9605 19.4656 16.9518 19.5893C16.5767 19.6353 7.42773 19.6353 7.05266 19.5893C6.29734 19.4967 5.58906 19.2263 4.9892 18.8016C4.72721 18.6161 4.2058 18.1129 4.02443 17.8707C3.61622 17.3254 3.36271 16.7519 3.2077 16.0231C3.12087 15.6148 3.12977 14.7806 3.22576 14.3361C3.62741 12.476 5.16064 11.0808 7.04093 10.8645C7.38098 10.8255 16.5897 10.8249 16.9349 10.864ZM7.47539 14.0839C7.11972 14.1425 6.68735 14.3636 6.37748 14.6452C6.15681 14.8458 5.78399 15.3203 5.82165 15.3527C5.83637 15.3654 5.97859 15.4743 6.13766 15.5946C6.29673 15.715 6.48369 15.8606 6.55316 15.9183C6.6226 15.9759 6.6961 16.0231 6.7164 16.0231C6.73675 16.0231 6.79812 15.9614 6.85275 15.8859C7.24129 15.3496 7.64448 15.1411 8.04073 15.2716C8.26754 15.3462 8.43011 15.4761 8.66212 15.7681C8.77353 15.9083 8.87507 16.0231 8.88773 16.0231C8.90428 16.0231 9.6999 15.432 9.81192 15.3365C9.82548 15.3249 9.55581 14.9797 9.38325 14.7878C9.08514 14.4562 8.61617 14.1859 8.18415 14.0967C7.92736 14.0436 7.74072 14.0402 7.47539 14.0839ZM15.7305 14.0959C15.114 14.2342 14.7578 14.4694 14.2918 15.0458C14.1814 15.1824 14.091 15.3043 14.091 15.3166C14.091 15.3289 14.2018 15.4249 14.3372 15.5298C14.4727 15.6347 14.5992 15.7348 14.6185 15.7523C14.7079 15.8337 14.972 16.0231 14.996 16.0231C15.0108 16.0231 15.0916 15.9353 15.1755 15.8279C15.3941 15.5485 15.4391 15.5028 15.6057 15.3917C15.9263 15.1779 16.3017 15.1902 16.6188 15.425C16.6747 15.4664 16.8163 15.6179 16.9334 15.7617C17.0505 15.9055 17.1583 16.0231 17.173 16.0231C17.1878 16.0231 17.2868 15.955 17.393 15.8718C17.4993 15.7886 17.6964 15.6373 17.8309 15.5356C17.9655 15.4339 18.0756 15.3389 18.0756 15.3245C18.0756 15.2808 17.6318 14.7399 17.5043 14.6284C17.3549 14.4976 17.1423 14.3516 16.9885 14.274C16.6242 14.0903 16.0916 14.0149 15.7305 14.0959Z" fill="black"/>
</svg>
