<svg width="20" height="20" viewBox="0 0 20 20" fill="none" xmlns="http://www.w3.org/2000/svg">
<path d="M3.62376 14.2488C3.23324 14.6393 2.60007 14.6393 2.20955 14.2488C1.81903 13.8582 1.81903 13.2251 2.20955 12.8346L3.62376 14.2488ZM9.99999 6.45833L9.29288 5.75122C9.48042 5.56368 9.73477 5.45833 9.99999 5.45833C10.2652 5.45833 10.5196 5.56368 10.7071 5.75122L9.99999 6.45833ZM17.7904 12.8346C18.181 13.2251 18.181 13.8582 17.7904 14.2488C17.3999 14.6393 16.7667 14.6393 16.3762 14.2488L17.7904 12.8346ZM2.20955 12.8346L9.29288 5.75122L10.7071 7.16543L3.62376 14.2488L2.20955 12.8346ZM10.7071 5.75122L17.7904 12.8346L16.3762 14.2488L9.29288 7.16543L10.7071 5.75122Z" fill="#717171"/>
</svg>
