<svg width="40" height="40" viewBox="0 0 40 40" fill="none" xmlns="http://www.w3.org/2000/svg">
<rect width="40" height="40" fill="white" fill-opacity="0.3"/>
<path d="M24.9571 12.2071C25.3476 11.8166 25.3476 11.1834 24.9571 10.7929C24.5666 10.4024 23.9334 10.4024 23.5429 10.7929L24.9571 12.2071ZM15.75 20L15.0429 19.2929C14.6524 19.6834 14.6524 20.3166 15.0429 20.7071L15.75 20ZM23.5429 29.2071C23.9334 29.5976 24.5666 29.5976 24.9571 29.2071C25.3476 28.8166 25.3476 28.1834 24.9571 27.7929L23.5429 29.2071ZM23.5429 10.7929L15.0429 19.2929L16.4571 20.7071L24.9571 12.2071L23.5429 10.7929ZM15.0429 20.7071L23.5429 29.2071L24.9571 27.7929L16.4571 19.2929L15.0429 20.7071Z" fill="#2B2B2B"/>
</svg>
