<svg width="40" height="40" viewBox="0 0 40 40" fill="none" xmlns="http://www.w3.org/2000/svg">
<rect width="40" height="40" fill="white" fill-opacity="0.3"/>
<path d="M15.0429 12.2071C14.6524 11.8166 14.6524 11.1834 15.0429 10.7929C15.4334 10.4024 16.0666 10.4024 16.4571 10.7929L15.0429 12.2071ZM24.25 20L24.9571 19.2929C25.3476 19.6834 25.3476 20.3166 24.9571 20.7071L24.25 20ZM16.4571 29.2071C16.0666 29.5976 15.4334 29.5976 15.0429 29.2071C14.6524 28.8166 14.6524 28.1834 15.0429 27.7929L16.4571 29.2071ZM16.4571 10.7929L24.9571 19.2929L23.5429 20.7071L15.0429 12.2071L16.4571 10.7929ZM24.9571 20.7071L16.4571 29.2071L15.0429 27.7929L23.5429 19.2929L24.9571 20.7071Z" fill="#2B2B2B"/>
</svg>
