<svg width="24" height="24" viewBox="0 0 24 24" fill="none" xmlns="http://www.w3.org/2000/svg">
<path d="M21 2H3C2.73478 2 2.48043 2.10536 2.29289 2.29289C2.10536 2.48043 2 2.73478 2 3V21C2 21.2652 2.10536 21.5196 2.29289 21.7071C2.48043 21.8946 2.73478 22 3 22H21C21.2652 22 21.5196 21.8946 21.7071 21.7071C21.8946 21.5196 22 21.2652 22 21V3C22 2.73478 21.8946 2.48043 21.7071 2.29289C21.5196 2.10536 21.2652 2 21 2ZM20 20H4V4H20V20Z" fill="#FF5E1A"/>
<path d="M17.4394 8.90731C17.3945 8.78392 17.3256 8.6706 17.2368 8.57382C17.0576 8.37864 16.8082 8.26258 16.5434 8.25115C16.2787 8.23971 16.0202 8.33382 15.8248 8.51282L10.5308 13.3658L8.20782 11.0428C8.02032 10.8552 7.76595 10.7497 7.50068 10.7496C7.23541 10.7495 6.98097 10.8548 6.79332 11.0423C6.60568 11.2298 6.50022 11.4842 6.50012 11.7495C6.50003 12.0147 6.60532 12.2692 6.79282 12.4568L9.79282 15.4568C9.97506 15.6391 10.2206 15.7439 10.4783 15.7495C10.736 15.7551 10.9859 15.661 11.1758 15.4868L17.1758 9.98682C17.2726 9.89805 17.351 9.79108 17.4064 9.67203C17.4619 9.55298 17.4933 9.42417 17.499 9.29295C17.5047 9.16174 17.4844 9.0307 17.4394 8.90731Z" fill="#FF5E1A"/>
</svg>
