<svg width="71" height="20" viewBox="0 0 71 20" fill="none" xmlns="http://www.w3.org/2000/svg">
    <path d="M9.884 20C9.4033 19.9973 8.92557 19.9236 8.46596 19.7811C7.96193 19.6247 7.47475 19.4173 7.0118 19.1621C6.37872 18.8328 5.77393 18.4506 5.20373 18.0194C4.69053 17.6127 4.20547 17.171 3.75198 16.6972C3.13772 16.0757 2.56472 15.44 2.09353 14.8561C1.57239 14.2346 1.12242 13.5555 0.752185 12.8317L0.720887 12.7656V12.7635L0.713665 12.7482V12.7447V12.7412L0.677208 12.6622L0.6748 12.657L0.672393 12.6518L0.637999 12.5756L0.633528 12.5659V12.5631L0.608077 12.506L0.600166 12.4883L0.594319 12.4747L0.589504 12.4639V12.4618L0.563021 12.4009L0.56027 12.394L0.553047 12.3873L0.521749 12.3136L0.51659 12.3014L0.48598 12.2266L0.483916 12.2217L0.481853 12.2168L0.452962 12.1438L0.449523 12.1351L0.421664 12.0631V12.0606L0.417881 12.0509L0.391398 11.9813L0.38899 11.9743L0.385895 11.9663C0.37764 11.944 0.36973 11.9218 0.361475 11.8988V11.8943L0.35666 11.8807C0.347374 11.855 0.340152 11.8337 0.333617 11.815V11.8108L0.328458 11.7951L0.301631 11.7262L0.295096 11.706L0.274116 11.642L0.270677 11.6319L0.267925 11.6218C0.260359 11.5982 0.254168 11.5776 0.248321 11.5589L0.242474 11.539L0.225621 11.4827L0.222526 11.4719V11.4698L0.219086 11.4576L0.20189 11.4019L0.199138 11.3925L0.196387 11.3783C0.19054 11.3563 0.185381 11.3372 0.180566 11.3191L0.177126 11.3087L0.174031 11.2972C0.16956 11.2794 0.164401 11.2603 0.159242 11.2387L0.154083 11.2179V11.213C0.1503 11.1973 0.14514 11.1782 0.140325 11.1559L0.133103 11.1284C0.128976 11.1114 0.124848 11.0936 0.120377 11.0721L0.117626 11.0588L0.11453 11.0449C0.110403 11.0261 0.10662 11.0073 0.102837 10.9889L0.0987093 10.9632C0.0959578 10.9499 0.0935503 10.9367 0.0907988 10.9235V10.9165V10.9106V10.9085L0.0856398 10.8807V10.8772L0.0784171 10.8365C0.0760096 10.8236 0.073946 10.8107 0.0718824 10.7979L0.0650037 10.7554C0.0629401 10.7432 0.0612204 10.7311 0.0591568 10.7206C0.0570932 10.7102 0.0546856 10.6904 0.0522781 10.675L0.0502145 10.6601L0.0481509 10.6451C0.0457433 10.6274 0.0433358 10.6103 0.0412722 10.5926L0.0333617 10.5654V10.5606C0.0299223 10.5404 0.0299223 10.5237 0.026483 10.5084C0.026483 10.499 0.0244194 10.4896 0.0233876 10.4802V10.4767C0.0216679 10.46 0.0199482 10.4419 0.0182285 10.4252C0.0182285 10.4155 0.0165089 10.4054 0.0154771 10.3956V10.3935C0.0141013 10.3792 0.0128402 10.3648 0.0116938 10.3504C0.0116938 10.3375 0.00963018 10.325 0.00894231 10.3121C0.00825444 10.2992 0.00722263 10.2867 0.00619083 10.2742C0.00619083 10.2599 0.00447115 10.2457 0.00378328 10.231C0.00309541 10.2164 0.00378328 10.207 0.00171967 10.1962C-0.000343935 10.1855 0.00171967 10.1674 0 10.1531V10.151C0 10.1388 0 10.1267 0 10.1145C0 10.1023 0 10.0953 0 10.0859V10.072C0 10.0588 0 10.0452 0 10.032C0 10.0188 0 10.0104 0 9.99965V9.91858C0 9.90187 0 9.88517 0 9.86847C0 9.85664 0 9.84481 0 9.83368C0 9.82254 0 9.8041 0 9.78914C0 9.78079 0 9.77278 0 9.76443V9.75225C0 9.73346 -2.58701e-10 9.71746 0.00240754 9.70145C0.00240754 9.69206 0.00240754 9.68231 0.00240754 9.67292C0.00240754 9.65761 0.00412722 9.64125 0.00550296 9.62177C0.00550296 9.61272 0.00550296 9.60333 0.00756657 9.59428C0.00756657 9.57688 0.010318 9.55948 0.0116938 9.54209V9.52504V9.51286C0.0132988 9.49546 0.0150185 9.47806 0.0168528 9.46066L0.0196043 9.43317V9.42761C0.0196043 9.41195 0.0230436 9.3949 0.0257951 9.37472C0.0257951 9.36845 0.0257951 9.36219 0.0282027 9.35593V9.34688V9.3434C0.0302663 9.326 0.0326738 9.3086 0.0350813 9.29121L0.0385207 9.2665C0.0412722 9.24771 0.0440237 9.22892 0.0467751 9.21048L0.0502145 9.1896V9.18647C0.052966 9.16907 0.0560614 9.14993 0.0598447 9.12801L0.0639719 9.10366C0.0674112 9.08348 0.0711945 9.06295 0.0749778 9.04242L0.0780732 9.02641V9.01771C0.0818565 8.99753 0.0859837 8.97665 0.0901109 8.95647L0.0935503 8.93907V8.93594C0.0976775 8.91576 0.102149 8.89488 0.10662 8.87435V8.86774L0.109371 8.85487C0.113498 8.83573 0.118314 8.81555 0.123817 8.79189L0.128288 8.77344C0.133103 8.75361 0.138262 8.73204 0.144797 8.70559L0.147204 8.6962L0.149268 8.68854C0.155115 8.66523 0.161305 8.64157 0.168184 8.61582L0.169904 8.60921L0.171967 8.6019C0.178846 8.5765 0.185037 8.55388 0.190884 8.53231L0.195355 8.5163C0.201202 8.49577 0.208424 8.47141 0.215647 8.44671V8.44393L0.21943 8.4314C0.226997 8.40635 0.234564 8.38199 0.241442 8.35972L0.245226 8.34754C0.252792 8.32353 0.261047 8.29778 0.270677 8.26855L0.27274 8.26194V8.25951C0.281339 8.23306 0.290625 8.20627 0.298879 8.18157L0.303007 8.17008C0.311605 8.14468 0.320891 8.11893 0.32949 8.09492L0.331553 8.08936L0.333617 8.08379C0.344279 8.05456 0.353221 8.03055 0.361475 8.00759L0.364915 7.99819C0.374889 7.97209 0.385207 7.94495 0.395869 7.91746L0.397933 7.91224C0.408251 7.88545 0.4196 7.85727 0.432326 7.82595L0.434734 7.82004C0.446427 7.79116 0.457433 7.76401 0.469127 7.73757L0.47291 7.72852C0.482884 7.70451 0.49389 7.67876 0.507304 7.6478L0.511431 7.6384C0.521749 7.61474 0.533099 7.58829 0.547888 7.55559L0.550984 7.54863C0.566461 7.51383 0.57953 7.4853 0.591568 7.4592C1.30833 5.90034 2.38003 4.81471 3.41837 3.76527L3.439 3.74439C4.04295 3.13337 4.60666 2.61178 5.16212 2.15004C5.79739 1.61627 6.47428 1.13533 7.18617 0.711925C7.58192 0.473678 8.00656 0.288408 8.44945 0.160757C8.82899 0.0546148 9.22092 0.000545388 9.6147 0C10.1442 0.00386712 10.6697 0.0943445 11.1707 0.267929C11.65 0.433638 12.114 0.64195 12.5571 0.890428C13.2647 1.27491 13.9436 1.71125 14.5883 2.19597C15.1952 2.65325 15.7685 3.15435 16.3039 3.69533C16.8627 4.26729 17.3743 4.88466 17.8334 5.54125C18.2624 6.12745 18.6164 6.76615 18.8872 7.44215C19.0637 7.91491 19.2136 8.39737 19.3364 8.88723C19.4434 9.31301 19.5036 9.74944 19.5159 10.1886C19.5244 10.619 19.4728 11.0484 19.3628 11.4642C19.2333 11.94 19.0492 12.3988 18.8143 12.8313C18.4797 13.4661 18.0883 14.0683 17.6449 14.6306C17.2033 15.1826 16.7306 15.7083 16.2293 16.2052C15.6876 16.7531 15.117 17.2709 14.5199 17.7564C13.895 18.2654 13.2396 18.7349 12.5574 19.1621C11.7628 19.6922 10.8356 19.9828 9.884 20ZM5.5088 16.9853C5.55042 17.0138 5.59341 17.0427 5.6364 17.0709C5.58894 17.0396 5.54732 17.0114 5.5088 16.9853ZM4.75731 8.75326L4.73461 8.80302V8.80685L4.71431 8.85278L4.71225 8.858L4.69299 8.90289V8.90532V8.90776L4.67407 8.95369V8.95682L4.65516 9.00449V9.00658L4.63796 9.05146V9.05459V9.05738L4.62248 9.09948L4.62042 9.1047L4.60563 9.14646V9.14994V9.15272C4.60082 9.16594 4.59634 9.18021 4.59119 9.19587V9.19935C4.58534 9.21709 4.58087 9.23031 4.57709 9.24319L4.57502 9.2498L4.56298 9.28981L4.56058 9.29817C4.55668 9.31092 4.55289 9.32368 4.54923 9.33644V9.34097V9.34549L4.53856 9.38376L4.52102 9.3949L4.51896 9.40325L4.51071 9.43457L4.5083 9.44396C4.5052 9.45649 4.50211 9.46901 4.49901 9.48154L4.4966 9.49163L4.48869 9.52643L4.48663 9.53617L4.48388 9.54939L4.47941 9.57062V9.57619V9.5821L4.47356 9.61098V9.61655L4.46668 9.63464L4.46255 9.65691L4.46049 9.66874V9.67396V9.68127C4.45877 9.69206 4.45705 9.70249 4.45533 9.71328L4.45327 9.7265L4.4488 9.75782L4.44673 9.77104C4.44673 9.78148 4.44398 9.79157 4.44261 9.80201V9.81001V9.81802C4.44261 9.82776 4.4402 9.8375 4.43917 9.84725V9.85699V9.86569V9.87508C4.43917 9.88169 4.43917 9.88831 4.43745 9.89457V9.91092V9.91962C4.43745 9.92623 4.43745 9.93319 4.43745 9.9398C4.43745 9.94641 4.43745 9.94989 4.43745 9.95511C4.43745 9.96033 4.43745 9.97321 4.43573 9.98225C4.43573 9.98573 4.43573 9.98921 4.43573 9.99304V9.9993C4.43573 10.0084 4.43573 10.0174 4.43573 10.0268C4.43573 10.0362 4.43573 10.04 4.43573 10.0466C4.43573 10.0543 4.43573 10.0623 4.43573 10.0699V10.0919C4.43573 10.1006 4.43573 10.1093 4.43573 10.118V10.1809C4.43573 10.1882 4.43573 10.1959 4.43573 10.2032C4.43573 10.2105 4.43573 10.2189 4.43573 10.2269V10.2471C4.43573 10.2554 4.43573 10.2638 4.43573 10.2721V10.2822V10.2923C4.43573 10.2979 4.43573 10.3031 4.43573 10.3086V10.317V10.3278V10.3382C4.43573 10.3452 4.43573 10.3525 4.43573 10.3594V10.3713V10.3841V10.4002C4.43573 10.4095 4.43745 10.4189 4.43848 10.4283C4.43848 10.4322 4.43848 10.4356 4.43848 10.4395V10.4457C4.43848 10.4555 4.44054 10.4649 4.44192 10.4743V10.4816V10.4913L4.44398 10.5059L4.4457 10.5192L4.44811 10.5359V10.5442L4.45052 10.5602V10.5686V10.5787L4.45258 10.5905V10.6006V10.6107L4.45464 10.6222L4.45912 10.6458V10.6524L4.46152 10.6656V10.6723L4.46496 10.6904L4.46771 10.7036C4.46978 10.714 4.47196 10.7243 4.47425 10.7345L4.47734 10.7495L4.48216 10.7707L4.48422 10.7805V10.7878V10.7944L4.49145 10.825L4.49488 10.8393C4.49798 10.8518 4.50073 10.8622 4.50314 10.8716L4.50658 10.8849L4.51518 10.9165L4.5169 10.9228L4.51862 10.9291C4.52137 10.9395 4.52446 10.9496 4.52721 10.96L4.531 10.9736L4.54028 11.0053L4.542 11.0112V11.0164L4.55267 11.0512V11.0564V11.062L4.55817 11.0787L4.56402 11.0964L4.56642 11.1034V11.1076L4.57537 11.1343L4.57812 11.1424L4.5819 11.1531V11.158L4.59256 11.1886L4.596 11.1987L4.60976 11.2363L4.61182 11.2415V11.245L4.62661 11.2843L4.62936 11.2913L4.64484 11.3313L4.6469 11.3362L4.66066 11.371L4.66307 11.3769V11.3793V11.3824C4.66857 11.396 4.67442 11.4099 4.68026 11.4238L4.68233 11.4291L4.69953 11.4701L4.70193 11.476L4.71535 11.507L4.71913 11.5157L4.72257 11.5234L4.7408 11.5648V11.5672L4.74286 11.5717L4.76212 11.6142V11.6177V11.6201L4.76762 11.6319L4.78241 11.6643V11.6664L4.78964 11.6813L4.80408 11.7123C5.25317 12.5062 5.81404 13.2298 6.46907 13.8603C6.98881 14.4203 7.60173 14.8836 8.27989 15.2291C8.76492 15.5167 9.31348 15.6767 9.8754 15.6944C10.404 15.6849 10.9191 15.5235 11.3605 15.2291C12.1002 14.7624 12.7845 14.2113 13.4 13.5868C13.9721 13.0413 14.4567 12.409 14.8363 11.7127C15.4004 10.6451 15.2924 9.86847 14.8769 8.72021C14.5401 7.95459 14.0657 7.25894 13.4778 6.66864C12.8629 6.04936 12.1617 5.52441 11.3966 5.11048C10.9009 4.81161 10.3398 4.64173 9.76328 4.61603C9.28964 4.6211 8.82617 4.75564 8.42193 5.00539C7.658 5.47197 6.95815 6.03834 6.34044 6.68986L6.32943 6.701C5.68661 7.2828 5.15428 7.97855 4.75868 8.75396L4.75731 8.75326ZM14.7159 15.1049C14.5835 15.2389 14.4477 15.3721 14.3098 15.5033C14.4473 15.3721 14.5849 15.2389 14.7159 15.1049ZM17.0454 12.0178C17.0213 12.0655 16.9966 12.1139 16.9711 12.1622C16.9969 12.1132 17.02 12.0658 17.0454 12.0178ZM14.7813 4.19326C14.7813 4.19326 15.7152 5.23079 16.1158 5.80361C16.2898 6.05275 16.447 6.29667 16.5828 6.52911C16.0776 5.67982 14.7813 4.19326 14.7813 4.19326Z"
          fill="#606F88"/>
    <path d="M30.823 14.5256C31.2681 14.5256 31.6777 14.5167 32.0523 14.4988C32.427 14.4809 32.8135 14.4425 33.2118 14.3833C33.2464 14.3751 33.2828 14.3756 33.3172 14.3848C33.3517 14.3941 33.3832 14.4118 33.4092 14.4365C33.4353 14.4611 33.4552 14.4918 33.4667 14.5259C33.4782 14.56 33.4812 14.5965 33.4754 14.6321V15.9648C33.4754 16.1186 33.3821 16.2254 33.1943 16.2846C32.7358 16.4281 32.2655 16.5291 31.789 16.5866C31.2825 16.6554 30.7721 16.691 30.2611 16.6931C29.44 16.7158 28.6223 16.577 27.8536 16.2842C27.2294 16.035 26.6792 15.6276 26.2555 15.1012C25.8252 14.5432 25.5194 13.8975 25.3594 13.2086C25.1626 12.3768 25.0685 11.5236 25.0789 10.6684V9.85107C25.0687 8.99637 25.1602 8.14352 25.3513 7.31091C25.5051 6.62312 25.8047 5.97738 26.2296 5.41835C26.6488 4.89084 27.1967 4.48305 27.8193 4.23526C28.5881 3.94246 29.4057 3.80363 30.2268 3.82643C31.1815 3.83339 32.1294 3.98926 33.0371 4.28853C33.1177 4.30886 33.1909 4.35205 33.248 4.41307C33.286 4.47078 33.3046 4.5394 33.3008 4.60863V5.88809C33.3064 5.9237 33.3032 5.96016 33.2917 5.99428C33.2801 6.0284 33.2603 6.05914 33.2343 6.08374C33.2082 6.10833 33.1767 6.12603 33.1422 6.1353C33.1078 6.14457 33.0715 6.14511 33.0368 6.13687C32.7086 6.09048 32.3514 6.05487 31.9653 6.03005C31.5792 6.00523 31.1869 5.99363 30.7884 5.99526C30.3069 5.9816 29.8275 6.06001 29.3747 6.22633C29.0037 6.37303 28.683 6.6263 28.4524 6.95496C28.1998 7.33196 28.0292 7.75893 27.952 8.20763C27.8446 8.79663 27.7946 9.39487 27.8025 9.99375V10.5446C27.7945 11.1437 27.8474 11.7421 27.9604 12.3303C28.0424 12.7779 28.2192 13.2023 28.4786 13.5743C28.7181 13.8994 29.0441 14.149 29.4184 14.2939C29.8684 14.4588 30.3449 14.5372 30.8234 14.5249L30.823 14.5256ZM35.5132 4.3254C35.5132 4.13575 35.6004 4.0411 35.7765 4.0411H37.9543C37.9925 4.03558 38.0316 4.03913 38.0682 4.05147C38.1047 4.0638 38.138 4.08458 38.1652 4.11216C38.1925 4.13975 38.2128 4.17336 38.225 4.21037C38.2372 4.24738 38.2409 4.28678 38.2354 4.3254V13.5117C38.216 13.779 38.2772 14.0459 38.4111 14.2772C38.5035 14.3728 38.6168 14.4452 38.7419 14.4884C38.867 14.5316 39.0003 14.5445 39.1312 14.526H43.293C43.3312 14.5204 43.37 14.524 43.4065 14.5363C43.4431 14.5486 43.4763 14.5694 43.5036 14.597C43.5309 14.6246 43.5515 14.6582 43.5637 14.6953C43.5759 14.7323 43.5793 14.7716 43.5738 14.8102V16.1252C43.5738 16.3502 43.4746 16.4687 43.2755 16.4805C42.6317 16.5396 41.8938 16.59 41.0621 16.6315C40.2305 16.673 39.3698 16.6938 38.4799 16.6938C38.0104 16.7024 37.5414 16.6546 37.083 16.5515C36.7443 16.4777 36.4281 16.3225 36.1611 16.0991C35.9216 15.8833 35.7479 15.6029 35.6603 15.2908C35.5523 14.8915 35.5022 14.4785 35.5115 14.0646L35.5132 4.3254ZM47.9308 16.1781C47.9366 16.2191 47.933 16.261 47.92 16.3003C47.9071 16.3396 47.8852 16.3754 47.8562 16.4047C47.8272 16.434 47.792 16.456 47.7531 16.4691C47.7142 16.4822 47.6731 16.486 47.6325 16.4801H45.5068C45.4662 16.486 45.425 16.4822 45.3862 16.4691C45.3473 16.456 45.312 16.434 45.2831 16.4047C45.2541 16.3754 45.2322 16.3396 45.2192 16.3003C45.2063 16.261 45.2024 16.2191 45.2082 16.1781V4.36086C45.2082 4.14768 45.3077 4.0411 45.5068 4.0411H47.6325C47.8318 4.0411 47.931 4.14768 47.9308 4.36086V16.1781ZM56.1509 14.5253C56.5962 14.5253 57.0063 14.5163 57.3809 14.4985C57.7556 14.4806 58.142 14.4421 58.54 14.3829C58.5747 14.3747 58.6107 14.3753 58.6451 14.3845C58.6796 14.3938 58.7114 14.4115 58.7375 14.4361C58.7636 14.4607 58.7834 14.4914 58.7949 14.5255C58.8065 14.5596 58.8094 14.5962 58.8037 14.6318V15.9644C58.8037 16.1185 58.7101 16.2251 58.5225 16.2842C58.0642 16.4277 57.5936 16.5288 57.1172 16.5863C56.6107 16.655 56.1005 16.6906 55.5894 16.6927C54.7682 16.7155 53.9506 16.5766 53.1818 16.2839C52.5576 16.0346 52.0071 15.6273 51.5834 15.1008C51.1537 14.5427 50.8488 13.897 50.6893 13.2082C50.4924 12.3765 50.3979 11.5233 50.4082 10.6681V9.85073C50.398 8.99603 50.4894 8.14318 50.6806 7.31057C50.8345 6.62283 51.1345 5.97711 51.5592 5.41801C51.9784 4.8905 52.5263 4.48271 53.1489 4.23492C53.9177 3.94216 54.7353 3.80328 55.5564 3.82605C56.5112 3.83306 57.4592 3.98893 58.367 4.28814C58.4475 4.30855 58.5203 4.35178 58.5773 4.41273C58.6153 4.47044 58.6339 4.53906 58.63 4.60829V5.88775C58.6358 5.92334 58.6328 5.95981 58.6213 5.99394C58.6098 6.02807 58.5903 6.05879 58.5642 6.0834C58.5381 6.108 58.5063 6.12574 58.4718 6.13501C58.4374 6.14427 58.4014 6.14479 58.3667 6.13653C58.0386 6.09014 57.6813 6.05453 57.2949 6.02971C56.9086 6.00489 56.5164 5.9933 56.1184 5.99492C55.6368 5.98123 55.1568 6.05964 54.704 6.22599C54.333 6.37269 54.0126 6.62596 53.782 6.95462C53.5297 7.33177 53.3591 7.75868 53.2816 8.20729C53.1745 8.79632 53.1243 9.3945 53.1321 9.99337V10.5442C53.124 11.1433 53.1768 11.7418 53.2896 12.33C53.3717 12.7777 53.5489 13.202 53.8086 13.5739C54.0479 13.8992 54.3736 14.1488 54.748 14.2935C55.1979 14.4584 55.6743 14.5368 56.1526 14.5246L56.1509 14.5253ZM69.6585 4.04076C69.6975 4.03695 69.7365 4.04506 69.771 4.06404C69.8054 4.08302 69.8336 4.112 69.8516 4.14725C69.8685 4.18502 69.8741 4.22689 69.868 4.26788C69.8619 4.30887 69.8445 4.34722 69.8173 4.37828L66.0582 10.0292L70.309 16.16C70.3317 16.1882 70.3461 16.2223 70.3507 16.2584C70.3553 16.2945 70.3501 16.3311 70.3352 16.3643C70.3187 16.4032 70.2901 16.4357 70.2536 16.4565C70.2171 16.4774 70.1749 16.4856 70.1334 16.4798H67.657C67.5548 16.4849 67.4527 16.4667 67.3584 16.4265C67.2774 16.3807 67.2107 16.313 67.1656 16.231L63.5644 10.6865V16.1774C63.5701 16.2184 63.5666 16.2602 63.5536 16.2995C63.5406 16.3388 63.5187 16.3745 63.4898 16.4038C63.4608 16.4331 63.4255 16.4552 63.3867 16.4683C63.3478 16.4814 63.3066 16.4852 63.2661 16.4794H61.14C61.0995 16.4852 61.0583 16.4815 61.0194 16.4683C60.9806 16.4552 60.9452 16.4331 60.9163 16.4038C60.8874 16.3745 60.8658 16.3388 60.8528 16.2995C60.8399 16.2602 60.836 16.2184 60.8418 16.1774V4.36018C60.8418 4.147 60.9412 4.04042 61.14 4.04042H63.2661C63.4649 4.04042 63.5641 4.147 63.5644 4.36018V9.37088L66.9191 4.25302C66.964 4.18668 67.0246 4.13254 67.0951 4.09534C67.1655 4.05815 67.244 4.03903 67.3235 4.0397L69.6585 4.04076Z"
          fill="#606F88"/>
</svg>
