<svg width="24" height="24" viewBox="0 0 24 24" fill="none" xmlns="http://www.w3.org/2000/svg">
<path d="M19.8 5.4C19.7069 5.2758 19.5861 5.175 19.4472 5.10557C19.3084 5.03614 19.1552 5 19 5H15V4C15 3.46957 14.7893 2.96086 14.4142 2.58579C14.0391 2.21071 13.5304 2 13 2H3C2.46957 2 1.96086 2.21071 1.58579 2.58579C1.21071 2.96086 1 3.46957 1 4V17C1 17.2652 1.10536 17.5196 1.29289 17.7071C1.48043 17.8946 1.73478 18 2 18H3C3 19.0609 3.42143 20.0783 4.17157 20.8284C4.92172 21.5786 5.93913 22 7 22C8.06087 22 9.07828 21.5786 9.82843 20.8284C10.5786 20.0783 11 19.0609 11 18H13C13 19.0609 13.4214 20.0783 14.1716 20.8284C14.9217 21.5786 15.9391 22 17 22C18.0609 22 19.0783 21.5786 19.8284 20.8284C20.5786 20.0783 21 19.0609 21 18C21.5304 18 22.0391 17.7893 22.4142 17.4142C22.7893 17.0391 23 16.5304 23 16V10C23 9.78363 22.9298 9.5731 22.8 9.4L19.8 5.4ZM7 20C6.60444 20 6.21776 19.8827 5.88886 19.6629C5.55996 19.4432 5.30362 19.1308 5.15224 18.7654C5.00087 18.3999 4.96126 17.9978 5.03843 17.6098C5.1156 17.2219 5.30608 16.8655 5.58579 16.5858C5.86549 16.3061 6.22186 16.1156 6.60982 16.0384C6.99778 15.9613 7.39991 16.0009 7.76537 16.1522C8.13082 16.3036 8.44318 16.56 8.66294 16.8889C8.8827 17.2178 9 17.6044 9 18C9 18.5304 8.78929 19.0391 8.41421 19.4142C8.03914 19.7893 7.53043 20 7 20ZM13 16H10.444C10.0974 15.3924 9.59624 14.8874 8.99137 14.5361C8.38651 14.1848 7.69948 13.9997 7 13.9997C6.30052 13.9997 5.61349 14.1848 5.00863 14.5361C4.40376 14.8874 3.9026 15.3924 3.556 16H3V10H13V16ZM13 6V8H3V4H13V6ZM17 20C16.6044 20 16.2178 19.8827 15.8889 19.6629C15.56 19.4432 15.3036 19.1308 15.1522 18.7654C15.0009 18.3999 14.9613 17.9978 15.0384 17.6098C15.1156 17.2219 15.3061 16.8655 15.5858 16.5858C15.8655 16.3061 16.2219 16.1156 16.6098 16.0384C16.9978 15.9613 17.3999 16.0009 17.7654 16.1522C18.1308 16.3036 18.4432 16.56 18.6629 16.8889C18.8827 17.2178 19 17.6044 19 18C19 18.5304 18.7893 19.0391 18.4142 19.4142C18.0391 19.7893 17.5304 20 17 20ZM21 16H20.444C20.1859 15.5431 19.839 15.1424 19.4238 14.8215C19.0086 14.5006 18.5333 14.266 18.0261 14.1315C17.5189 13.9969 16.9899 13.9652 16.4702 14.0381C15.9505 14.111 15.4506 14.2871 15 14.556V7H18.5L21 10.333V16Z" fill="#2B2B2B"/>
</svg>
