<svg width="24" height="24" viewBox="0 0 24 24" fill="none" xmlns="http://www.w3.org/2000/svg">
<path d="M23 4.00001C23 4.26522 22.8946 4.51958 22.7071 4.70711C22.5196 4.89465 22.2652 5.00001 22 5.00001H19C18.7348 5.00001 18.4804 4.89465 18.2929 4.70711C18.1054 4.51958 18 4.26522 18 4.00001C18 3.73479 18.1054 3.48044 18.2929 3.2929C18.4804 3.10536 18.7348 3.00001 19 3.00001H22C22.2652 3.00001 22.5196 3.10536 22.7071 3.2929C22.8946 3.48044 23 3.73479 23 4.00001ZM2 3.00001H10.184C10.4199 2.33279 10.8841 1.77045 11.4945 1.41237C12.1049 1.0543 12.8222 0.923539 13.5197 1.04321C14.2172 1.16288 14.85 1.52528 15.3061 2.06635C15.7622 2.60741 16.0124 3.29232 16.0124 4.00001C16.0124 4.70769 15.7622 5.3926 15.3061 5.93367C14.85 6.47474 14.2172 6.83713 13.5197 6.9568C12.8222 7.07647 12.1049 6.94571 11.4945 6.58764C10.8841 6.22956 10.4199 5.66722 10.184 5.00001H2C1.73478 5.00001 1.48043 4.89465 1.29289 4.70711C1.10536 4.51958 1 4.26522 1 4.00001C1 3.73479 1.10536 3.48044 1.29289 3.2929C1.48043 3.10536 1.73478 3.00001 2 3.00001ZM12 4.00001C12 4.19779 12.0586 4.39113 12.1685 4.55558C12.2784 4.72003 12.4346 4.8482 12.6173 4.92389C12.8 4.99957 13.0011 5.01938 13.1951 4.98079C13.3891 4.94221 13.5673 4.84697 13.7071 4.70711C13.847 4.56726 13.9422 4.38908 13.9808 4.1951C14.0194 4.00112 13.9996 3.80005 13.9239 3.61732C13.8482 3.4346 13.72 3.27842 13.5556 3.16854C13.3911 3.05866 13.1978 3.00001 13 3.00001C12.7348 3.00001 12.4804 3.10536 12.2929 3.2929C12.1054 3.48044 12 3.73479 12 4.00001ZM1 12C1 11.7348 1.10536 11.4804 1.29289 11.2929C1.48043 11.1054 1.73478 11 2 11H6.184C6.4199 10.3328 6.88407 9.77045 7.49448 9.41238C8.10489 9.0543 8.82224 8.92354 9.51973 9.04321C10.2172 9.16288 10.85 9.52528 11.3061 10.0663C11.7622 10.6074 12.0124 11.2923 12.0124 12C12.0124 12.7077 11.7622 13.3926 11.3061 13.9337C10.85 14.4747 10.2172 14.8371 9.51973 14.9568C8.82224 15.0765 8.10489 14.9457 7.49448 14.5876C6.88407 14.2296 6.4199 13.6672 6.184 13H2C1.73478 13 1.48043 12.8946 1.29289 12.7071C1.10536 12.5196 1 12.2652 1 12ZM8 12C8 12.1978 8.05865 12.3911 8.16853 12.5556C8.27841 12.72 8.43459 12.8482 8.61732 12.9239C8.80004 12.9996 9.00111 13.0194 9.19509 12.9808C9.38907 12.9422 9.56725 12.847 9.70711 12.7071C9.84696 12.5673 9.9422 12.3891 9.98079 12.1951C10.0194 12.0011 9.99957 11.8 9.92388 11.6173C9.84819 11.4346 9.72002 11.2784 9.55557 11.1685C9.39112 11.0587 9.19778 11 9 11C8.73478 11 8.48043 11.1054 8.29289 11.2929C8.10536 11.4804 8 11.7348 8 12ZM22 11H15C14.7348 11 14.4804 11.1054 14.2929 11.2929C14.1054 11.4804 14 11.7348 14 12C14 12.2652 14.1054 12.5196 14.2929 12.7071C14.4804 12.8946 14.7348 13 15 13H22C22.2652 13 22.5196 12.8946 22.7071 12.7071C22.8946 12.5196 23 12.2652 23 12C23 11.7348 22.8946 11.4804 22.7071 11.2929C22.5196 11.1054 22.2652 11 22 11ZM22 19H17C16.7348 19 16.4804 19.1054 16.2929 19.2929C16.1054 19.4804 16 19.7348 16 20C16 20.2652 16.1054 20.5196 16.2929 20.7071C16.4804 20.8946 16.7348 21 17 21H22C22.2652 21 22.5196 20.8946 22.7071 20.7071C22.8946 20.5196 23 20.2652 23 20C23 19.7348 22.8946 19.4804 22.7071 19.2929C22.5196 19.1054 22.2652 19 22 19ZM1 20C1 19.7348 1.10536 19.4804 1.29289 19.2929C1.48043 19.1054 1.73478 19 2 19H8.184C8.4199 18.3328 8.88407 17.7705 9.49448 17.4124C10.1049 17.0543 10.8222 16.9235 11.5197 17.0432C12.2172 17.1629 12.85 17.5253 13.3061 18.0663C13.7622 18.6074 14.0124 19.2923 14.0124 20C14.0124 20.7077 13.7622 21.3926 13.3061 21.9337C12.85 22.4747 12.2172 22.8371 11.5197 22.9568C10.8222 23.0765 10.1049 22.9457 9.49448 22.5876C8.88407 22.2296 8.4199 21.6672 8.184 21H2C1.73478 21 1.48043 20.8946 1.29289 20.7071C1.10536 20.5196 1 20.2652 1 20ZM10 20C10 20.1978 10.0586 20.3911 10.1685 20.5556C10.2784 20.72 10.4346 20.8482 10.6173 20.9239C10.8 20.9996 11.0011 21.0194 11.1951 20.9808C11.3891 20.9422 11.5673 20.847 11.7071 20.7071C11.847 20.5673 11.9422 20.3891 11.9808 20.1951C12.0194 20.0011 11.9996 19.8 11.9239 19.6173C11.8482 19.4346 11.72 19.2784 11.5556 19.1685C11.3911 19.0587 11.1978 19 11 19C10.7348 19 10.4804 19.1054 10.2929 19.2929C10.1054 19.4804 10 19.7348 10 20Z" fill="white"/>
</svg>
