<svg width="20" height="20" viewBox="0 0 20 20" fill="none" xmlns="http://www.w3.org/2000/svg">
    <path d="M16.2501 11.31L10.0001 17.5L3.75009 11.31C3.33784 10.9088 3.01312 10.4267 2.79638 9.89387C2.57963 9.36105 2.47556 8.78913 2.4907 8.21412C2.50585 7.6391 2.63989 7.07345 2.88439 6.55279C3.12888 6.03212 3.47853 5.56772 3.91133 5.18882C4.34412 4.80993 4.85068 4.52475 5.3991 4.35124C5.94752 4.17773 6.52593 4.11966 7.09789 4.18067C7.66986 4.24169 8.223 4.42047 8.72248 4.70576C9.22196 4.99105 9.65696 5.37667 10.0001 5.83834C10.3447 5.38002 10.7802 4.99777 11.2793 4.71551C11.7785 4.43325 12.3305 4.25705 12.9009 4.19794C13.4712 4.13883 14.0477 4.19809 14.5941 4.372C15.1405 4.54591 15.6451 4.83073 16.0764 5.20864C16.5077 5.58655 16.8563 6.04941 17.1004 6.56825C17.3446 7.08709 17.479 7.65074 17.4953 8.22393C17.5116 8.79712 17.4095 9.3675 17.1952 9.89938C16.9809 10.4313 16.6592 10.9132 16.2501 11.315"
          stroke="#023A8E" stroke-width="1.5" stroke-linecap="round" stroke-linejoin="round"/>
</svg>
