<svg width="191" height="26" viewBox="0 0 191 26" fill="none" xmlns="http://www.w3.org/2000/svg">
<g clip-path="url(#clip0)">
<path fill-rule="evenodd" clip-rule="evenodd" d="M5.61348 25.48V9.60961L17.6833 25.48H22.3466V0.515518H16.9357V15.8865L5.2574 0.515518H0.20166V25.48H5.61348ZM54.427 25.48V20.5939H40.8972V15.3514H52.6468V10.4655H40.8972V5.40139H54.2502V0.515518H35.4498V25.48H54.427ZM83.9253 24.8737C85.5956 24.1179 87.0925 23.0253 88.3225 21.6642L84.8324 17.9192C83.9091 18.7989 82.8662 19.5433 81.7348 20.1304C80.6531 20.6291 79.4717 20.8731 78.2813 20.8435C77.3035 20.8674 76.3324 20.6752 75.437 20.2808C74.5417 19.8863 73.744 19.2992 73.1008 18.5612C71.7357 17.0399 71.0533 15.1854 71.0535 12.9976C71.0535 10.7865 71.7359 8.92612 73.1008 7.41639C73.7469 6.68297 74.5457 6.10023 75.4408 5.70915C76.336 5.31808 77.3058 5.12815 78.282 5.15274C79.45 5.12053 80.6107 5.34573 81.6822 5.81243C82.7842 6.36709 83.7981 7.08221 84.6908 7.9345L87.9664 4.1541C86.7433 2.92258 85.3237 1.90406 83.7661 1.14046C82.2939 0.439409 80.478 0.0887239 78.3184 0.0884088C74.5445 0.0884088 71.4351 1.33664 68.9901 3.83312C66.5451 6.32959 65.3224 9.38443 65.3219 12.9976C65.3219 16.6353 66.5383 19.6964 68.9712 22.1808C71.4041 24.6653 74.4482 25.9077 78.1034 25.9078C80.4059 25.9078 82.3465 25.5631 83.9253 24.8735V24.8737ZM125.208 12.9976C125.208 9.38396 123.955 6.3288 121.451 3.83217C118.947 1.33554 115.796 0.0873058 111.999 0.0874634C108.201 0.0874634 105.038 1.34161 102.51 3.8499C101.285 5.03161 100.315 6.45382 99.6627 8.02769C99.0103 9.60156 98.6889 11.2933 98.7185 12.9972C98.7185 16.6115 99.9706 19.6666 102.475 22.1626C104.979 24.6586 108.13 25.9069 111.928 25.9074C115.725 25.9074 118.888 24.6531 121.416 22.1447C122.642 20.9631 123.612 19.5409 124.264 17.967C124.916 16.3932 125.237 14.7015 125.208 12.9976ZM104.45 12.9976C104.45 10.7865 105.15 8.92612 106.55 7.41639C107.95 5.90666 109.743 5.15211 111.928 5.15274C114.111 5.15274 115.915 5.91359 117.34 7.4353C118.756 8.93544 119.523 10.9348 119.476 12.9988C119.476 15.2099 118.776 17.0704 117.376 18.5801C115.976 20.0898 114.184 20.8447 112 20.8447C109.815 20.8447 108.011 20.0839 106.588 18.5624C105.171 17.0623 104.404 15.0628 104.451 12.9988L104.45 12.9976ZM142.619 25.48V9.60961L154.688 25.48H159.353V0.515518H153.941V15.8865L142.263 0.515518H137.207V25.48H142.619ZM187.961 23.786C189.634 22.4192 190.471 20.5231 190.471 18.0977C190.471 16.0058 189.83 14.401 188.548 13.2832C187.266 12.1653 185.272 11.2499 182.567 10.5369C180.359 9.96628 178.911 9.4789 178.223 9.07472C177.898 8.89874 177.629 8.6348 177.446 8.313C177.264 7.99121 177.175 7.62451 177.19 7.25472C177.186 6.93617 177.26 6.62137 177.405 6.3383C177.551 6.05522 177.765 5.81263 178.027 5.63208C178.584 5.2164 179.374 5.0084 180.395 5.00808C182.365 5.00808 184.525 5.82834 186.875 7.46886L189.723 3.33274C187.088 1.21697 184.002 0.158924 180.465 0.158609C177.901 0.158609 175.806 0.848082 174.181 2.22703C172.556 3.60597 171.743 5.42487 171.743 7.68372C171.716 8.75025 171.904 9.81129 172.295 10.8037C172.663 11.6725 173.267 12.4202 174.039 12.9615C174.816 13.5221 175.659 13.9834 176.549 14.3345C177.678 14.7568 178.831 15.1084 180.003 15.3873C182.02 15.9106 183.361 16.3921 184.026 16.8317C184.329 17.007 184.581 17.2591 184.756 17.5627C184.931 17.8664 185.023 18.2108 185.023 18.5614C185.033 18.917 184.95 19.2689 184.781 19.5818C184.612 19.8948 184.364 20.1578 184.062 20.3445C183.421 20.7725 182.543 20.9865 181.427 20.9865C178.911 20.9865 176.431 19.976 173.986 17.9551L170.746 21.8424C173.713 24.5054 177.238 25.8369 181.32 25.8369C184.075 25.8366 186.288 25.1529 187.961 23.7858V23.786Z" fill="white"/>
</g>
<defs>
<clipPath id="clip0">
<rect width="190.667" height="26" fill="white"/>
</clipPath>
</defs>
</svg>
