<svg width="68" height="20" viewBox="0 0 68 20" fill="none" xmlns="http://www.w3.org/2000/svg">
    <path fill-rule="evenodd" clip-rule="evenodd"
          d="M67.2828 10.4993C67.7981 9.65004 67.7492 8.55417 67.2638 7.85884C66.8913 7.3239 64.2169 3.9734 63.3216 3.0625C62.267 1.98905 61.3489 1.46185 60.3171 1.46185H38.2874C36.2937 1.46185 35.6191 2.1232 35.6191 4.41123V13.4989C35.6191 15.7392 35.7953 16.73 38.7148 16.73H60.3171C61.3489 16.73 62.3971 15.9164 63.1737 15.104C64.0697 14.1686 66.8228 11.2579 67.2828 10.4993ZM40.5141 4.91475V4.97459C39.6131 5.48617 38.6387 6.07067 37.7599 7.32867V4.92695C37.7599 4.56603 37.7864 4.33374 38.206 4.33374H40.0113C40.4896 4.33374 40.5141 4.62257 40.5141 4.91475ZM52.6252 13.524V13.6529C52.6252 13.6648 52.6255 13.678 52.6258 13.6921C52.6301 13.866 52.6382 14.1936 52.0976 14.1939H50.2176C49.7569 14.1939 49.7686 13.8148 49.7733 13.6631C49.7737 13.6502 49.774 13.6389 49.774 13.6296V12.669H49.7759V7.99403C49.7762 7.34965 49.6852 6.89056 49.5031 6.61675C49.3209 6.34294 49.024 6.20603 48.6124 6.20603C47.7223 6.20603 47.088 7.02941 46.7195 7.50777C46.6738 7.56713 46.6321 7.62117 46.5946 7.66767V13.5241H46.5925V13.6531C46.5925 13.6649 46.5928 13.6781 46.5931 13.6922C46.5974 13.8661 46.6055 14.1936 46.0649 14.1936H44.2094C43.7492 14.1936 43.761 13.8148 43.7657 13.663C43.7661 13.65 43.7664 13.6387 43.7664 13.6294V12.6688H43.7687V7.99378C43.7679 7.3494 43.6786 6.8903 43.5006 6.61649C43.3227 6.34268 43.0317 6.20578 42.6276 6.20578C41.6727 6.20578 41.0506 7.06163 40.7065 7.53514C40.6712 7.5837 40.6388 7.62824 40.6093 7.66742V13.6529C40.6093 13.6648 40.6096 13.678 40.61 13.6921C40.6143 13.866 40.6223 14.1935 40.0821 14.1935H38.2026C37.7422 14.1935 37.754 13.8146 37.7588 13.6629C37.7592 13.6499 37.7595 13.6385 37.7595 13.6292V9.92844C37.7595 7.71329 40.2602 5.55142 40.8124 5.07403C40.8646 5.02885 40.8995 4.99876 40.913 4.98513C41.6156 4.4066 42.6067 4.10762 43.4593 4.10762C44.1958 4.10766 44.7956 4.24863 45.2585 4.53053C45.7213 4.81242 46.0675 5.25138 46.297 5.8474C46.7641 5.29894 47.251 4.87181 47.7578 4.56603C48.2629 4.26077 48.8429 4.10206 49.4329 4.10762C51.5619 4.10736 52.6264 5.3193 52.6264 7.74345V13.524H52.6252ZM58.7235 14.1084C60.7069 14.1084 62.3078 13.1025 62.976 11.3027V11.3025C63.021 11.1828 62.9074 10.932 62.6511 10.9322H61.0807C61.0807 10.9322 60.6955 10.9151 60.5077 11.2233C60.0756 11.9318 59.5794 12.2932 58.7419 12.2932C57.3688 12.2932 56.5909 11.422 56.5547 9.80687H62.6511C63.1314 9.80687 63.2437 9.46685 63.2291 9.08199C63.1149 6.06991 61.3161 4.20004 58.634 4.20004C55.9227 4.20004 53.9526 6.30499 53.9526 9.20902C53.9526 12.1485 55.8504 14.1084 58.7235 14.1084ZM56.5547 8.17442C56.6994 6.86714 57.4944 6.06877 58.634 6.06877C59.9163 6.06877 60.5312 7.03095 60.6397 8.17442H56.5547Z"
          fill="#00254A"/>
    <path fill-rule="evenodd" clip-rule="evenodd"
          d="M11.2209 1.97423C10.9794 1.589 10.6661 1.25389 10.2982 0.987166C9.93021 0.728376 9.52615 0.525465 9.09893 0.385019C8.62444 0.230304 8.13434 0.128378 7.63758 0.081087C7.06925 0.0251401 6.4985 -0.00188928 5.92748 0.000102532H0.923072C0.473073 0.000102532 0.00137506 0.295968 0.00137506 0.853906V8.9772C0.63532 10.3311 1.87021 11.7684 3.2742 12.4554V10.8443C3.2742 9.99418 3.91373 9.80426 4.17826 9.80426H5.65794C7.69615 9.80426 9.25179 9.37577 10.3249 8.51886C11.398 7.66315 11.9344 6.3921 11.9344 4.70568C11.9375 4.2184 11.881 3.73257 11.7664 3.259C11.6523 2.80496 11.4683 2.37149 11.2209 1.97423ZM8.30465 6.14613C8.13187 6.44634 7.87413 6.6886 7.56404 6.84244C7.22794 7.00295 6.86487 7.09924 6.49349 7.12636C6.08903 7.16244 5.67137 7.18054 5.2405 7.1806H3.83435C3.49038 7.1806 3.2742 6.9003 3.2742 6.4868V3.16563C3.2742 2.79316 3.51678 2.63691 3.80764 2.63691H5.2405C5.70724 2.63691 6.14495 2.65039 6.55364 2.67737C6.92147 2.69416 7.2827 2.78147 7.61772 2.93455C7.91632 3.07684 8.16347 3.30839 8.32508 3.59723C8.49538 3.89428 8.58053 4.3135 8.58066 4.85488C8.58066 5.40456 8.48866 5.83498 8.30465 6.14613ZM3.2742 12.9803C1.73005 12.3627 0.694837 11.6259 0.00137506 10.8954V14.817C0.00137506 14.817 -0.0557317 15.4566 0.566092 15.4566H2.74939C3.34831 15.4566 3.27445 14.817 3.27445 14.817V12.9803H3.2742ZM34.2159 4.2735H32.2564C31.8582 4.2735 31.5958 4.44106 31.4379 4.87946C31.28 5.31786 29.2031 11.1083 29.2031 11.1083C29.2031 11.1083 27.2163 5.43746 27.06 4.99837C26.9037 4.55927 26.6469 4.2735 26.1844 4.2735H24.3839C23.7488 4.2735 23.7488 4.77294 23.8275 4.97099C23.8914 5.13106 26.357 11.8961 27.2961 14.4733C27.5175 15.0818 27.605 15.2648 27.6118 15.4902C27.6187 15.7157 27.3898 16.1889 27.2316 16.4605C27.1589 16.5844 27.0755 16.7018 26.9823 16.8111C28.8232 16.2594 30.9451 14.2572 32.0424 12.0881C33.1274 9.06524 34.5582 5.07205 34.6203 4.86777C34.7201 4.53691 34.7191 4.2735 34.2159 4.2735ZM25.5637 17.3864C25.3936 17.3834 25.2238 17.3711 25.0551 17.3496C24.8485 17.3222 24.462 17.3608 24.462 17.6996V19.2141C24.462 19.7922 24.7381 19.8307 24.8901 19.8649C25.3473 19.9604 25.8136 20.0054 26.2807 19.9995C26.8997 19.9995 27.4383 19.8867 27.8965 19.6613C28.3592 19.4321 28.7715 19.1126 29.1092 18.7216C29.4814 18.2862 29.796 17.8046 30.0451 17.2886C30.3187 16.7342 30.5812 16.1235 30.8329 15.4564C30.8329 15.4564 30.9407 15.155 31.1184 14.6611C30.5779 15.2073 28.0305 17.6255 25.5637 17.3864ZM22.6211 6.07137C22.5148 5.81824 22.3695 5.58332 22.1907 5.37515C22.0124 5.17533 21.8084 5.00017 21.584 4.85431C21.3418 4.69669 21.0849 4.56307 20.8169 4.45536C20.5432 4.34836 20.2617 4.26257 19.9749 4.19874C19.6488 4.12726 19.318 4.07981 18.985 4.05678C18.6255 4.02998 18.2213 4.01647 17.7725 4.01626C14.8041 4.01626 13.1139 4.95541 12.7018 6.83373C12.5678 7.41657 13.1437 7.45081 13.1437 7.45081H14.9698C15.4465 7.45081 15.426 7.29703 15.6573 6.86549C15.7406 6.63067 15.8906 6.42525 16.0888 6.27444C16.4392 6.00419 16.9645 5.86905 17.6646 5.869C18.3382 5.869 18.8276 5.99958 19.1328 6.26072C19.4379 6.52186 19.6175 6.91853 19.6715 7.45081C19.6715 8.06801 19.4792 8.47979 18.7339 8.47979C16.9168 8.41374 14.9643 8.61953 13.8645 9.25071C12.7648 9.88188 12.1431 11.1158 12.1431 12.441C12.1431 12.9815 12.2396 13.4548 12.4327 13.8609C12.6199 14.2589 12.8965 14.6084 13.241 14.8816C13.6065 15.167 14.0255 15.3762 14.4731 15.4969C14.982 15.6366 15.5077 15.705 16.0352 15.7002C16.8255 15.7002 17.5238 15.6009 18.1299 15.4025C18.7359 15.2045 19.6737 14.5514 19.7932 14.4561V14.8042C19.7932 15.1492 19.898 15.4569 20.3093 15.4569H22.4327C22.8626 15.4569 22.9581 15.1492 22.9581 14.7706V8.22185C22.9619 7.81476 22.9349 7.408 22.8775 7.00498C22.8319 6.68415 22.7457 6.37044 22.6211 6.07137ZM19.7255 12.4921C19.7255 12.4921 19.1772 13.6323 17.2202 13.6323C16.6818 13.6323 16.2441 13.5107 15.9071 13.2674C15.57 13.0242 15.4016 12.6455 15.4019 12.1315C15.4019 11.4639 15.6758 10.9927 16.2238 10.7178C16.7712 10.4432 17.8672 10.2863 18.6884 10.3055C19.5097 10.3248 19.7255 10.8443 19.7255 11.203V12.4924V12.4921Z"
          fill="#00254A"/>
</svg>
