<svg width="82" height="24" viewBox="0 0 82 24" fill="none" xmlns="http://www.w3.org/2000/svg">
    <g clip-path="url(#clip0_2_1004)">
        <path fill-rule="evenodd" clip-rule="evenodd" d="M80.7406 12.5992C81.3588 11.5801 81.3002 10.2651 80.7177 9.43066C80.2708 8.78872 77.0614 4.76813 75.987 3.67505C74.7216 2.38691 73.6198 1.75427 72.3817 1.75427H45.9461C43.5536 1.75427 42.7441 2.54789 42.7441 5.29353V16.1987C42.7441 18.887 42.9555 20.0761 46.4589 20.0761H72.3817C73.6198 20.0761 74.8777 19.0998 75.8096 18.1248C76.8848 17.0024 80.1885 13.5095 80.7406 12.5992ZM48.6219 5.8981V5.9699C47.5407 6.5838 46.3714 7.28521 45.3168 8.7948V5.91274C45.3168 5.47964 45.3487 5.20089 45.8522 5.20089H48.0186C48.5925 5.20089 48.6219 5.54748 48.6219 5.8981ZM63.1552 16.2292V16.3839C63.1552 16.3982 63.1556 16.414 63.156 16.431C63.1611 16.6397 63.1708 17.0328 62.5221 17.033H60.2661C59.7132 17.033 59.7273 16.5781 59.7329 16.3961C59.7334 16.3806 59.7338 16.3671 59.7338 16.356V15.2032H59.7361V9.59324C59.7364 8.81998 59.6272 8.26907 59.4087 7.9405C59.1901 7.61193 58.8338 7.44764 58.3398 7.44764C57.2717 7.44764 56.5106 8.43569 56.0684 9.00973C56.0135 9.08095 55.9636 9.14581 55.9185 9.2016V16.2293H55.9159V16.3841C55.9159 16.3983 55.9163 16.4141 55.9167 16.4311C55.9219 16.6397 55.9316 17.0327 55.2828 17.0327H53.0562C52.504 17.0327 52.5181 16.5781 52.5238 16.396C52.5243 16.3804 52.5247 16.3668 52.5247 16.3556V15.2029H52.5274V9.59293C52.5265 8.81968 52.4193 8.26877 52.2058 7.94019C51.9923 7.61162 51.643 7.44733 51.1581 7.44733C50.0122 7.44733 49.2657 8.47436 48.8527 9.04257C48.8104 9.10084 48.7715 9.15428 48.7361 9.2013V16.3839C48.7361 16.3982 48.7365 16.4139 48.7369 16.4309C48.7421 16.6396 48.7518 17.0326 48.1035 17.0326H45.8481C45.2956 17.0326 45.3098 16.578 45.3155 16.3958C45.316 16.3802 45.3164 16.3666 45.3164 16.3555V11.9145C45.3164 9.25635 48.3172 6.66211 48.9798 6.08923C49.0426 6.03502 49.0843 5.99891 49.1006 5.98256C49.9437 5.28832 51.1331 4.92954 52.1561 4.92954C53.04 4.92959 53.7597 5.09875 54.3151 5.43703C54.8705 5.77531 55.2859 6.30206 55.5614 7.01728C56.1219 6.35913 56.7062 5.84658 57.3144 5.47964C57.9205 5.11333 58.6165 4.92287 59.3245 4.92954C61.8793 4.92923 63.1567 6.38357 63.1567 9.29254V16.2292H63.1552ZM70.4731 16.9304C72.8533 16.9304 74.7744 15.7235 75.5761 13.5637V13.5634C75.6302 13.4198 75.4939 13.1188 75.1863 13.1191H73.3018C73.3018 13.1191 72.8396 13.0985 72.6142 13.4684C72.0957 14.3185 71.5003 14.7523 70.4952 14.7523C68.8475 14.7523 67.914 13.7068 67.8706 11.7686H75.1863C75.7627 11.7686 75.8975 11.3606 75.88 10.8988C75.7429 7.28429 73.5843 5.04044 70.3658 5.04044C67.1123 5.04044 64.7481 7.56639 64.7481 11.0512C64.7481 14.5786 67.0254 16.9304 70.4731 16.9304ZM67.8706 9.80971C68.0442 8.24097 68.9983 7.28292 70.3658 7.28292C71.9046 7.28292 72.6424 8.43755 72.7726 9.80971H67.8706Z" fill="#5E697B"/>
        <path fill-rule="evenodd" clip-rule="evenodd" d="M13.465 2.36908C13.1753 1.9068 12.7993 1.50467 12.3578 1.1846C11.9163 0.874051 11.4314 0.630558 10.9187 0.462023C10.3493 0.276365 9.76121 0.154054 9.1651 0.0973044C8.4831 0.0301682 7.7982 -0.00226713 7.11298 0.000123038H1.10769C0.567687 0.000123038 0.00165007 0.355162 0.00165007 1.02469V10.7726C0.762384 12.3973 2.24425 14.1221 3.92904 14.9464V13.0132C3.92904 11.993 4.69647 11.7651 5.01391 11.7651H6.78953C9.23538 11.7651 11.1021 11.2509 12.3899 10.2226C13.6776 9.19578 14.3213 7.67052 14.3213 5.64681C14.325 5.06208 14.2572 4.47908 14.1196 3.9108C13.9828 3.36595 13.7619 2.84579 13.465 2.36908ZM9.96558 7.37536C9.75824 7.73561 9.44896 8.02632 9.07685 8.21092C8.67353 8.40353 8.23785 8.51909 7.79219 8.55163C7.30684 8.59493 6.80564 8.61665 6.2886 8.61673H4.60122C4.18846 8.61673 3.92904 8.28036 3.92904 7.78416V3.79876C3.92904 3.3518 4.22013 3.16429 4.56916 3.16429H6.2886C6.84869 3.16429 7.37394 3.18047 7.86437 3.21284C8.30576 3.233 8.73924 3.33776 9.14127 3.52146C9.49959 3.69221 9.79616 3.97006 9.99009 4.31668C10.1945 4.67314 10.2966 5.1762 10.2968 5.82586C10.2968 6.48548 10.1864 7.00198 9.96558 7.37536ZM3.92904 15.5764C2.07606 14.8352 0.833805 13.9511 0.00165007 13.0745V17.7804C0.00165007 17.7804 -0.066878 18.5479 0.67931 18.5479H3.29927C4.01797 18.5479 3.92935 17.7804 3.92935 17.7804V15.5764H3.92904ZM41.059 5.12821H38.7077C38.2298 5.12821 37.915 5.32928 37.7255 5.85536C37.5359 6.38143 35.0437 13.3299 35.0437 13.3299C35.0437 13.3299 32.6596 6.52496 32.472 5.99804C32.2844 5.47112 31.9763 5.12821 31.4212 5.12821H29.2607C28.4985 5.12821 28.4985 5.72753 28.593 5.96519C28.6697 6.15727 31.6284 14.2753 32.7553 17.3679C33.0211 18.0981 33.126 18.3178 33.1342 18.5883C33.1424 18.8588 32.8677 19.4267 32.6779 19.7526C32.5907 19.9013 32.4906 20.0422 32.3787 20.1734C34.5879 19.5112 37.1342 17.1086 38.4509 14.5057C39.7529 10.8783 41.4699 6.08646 41.5444 5.84133C41.6641 5.44429 41.6629 5.12821 41.059 5.12821ZM30.6764 20.8636C30.4723 20.8601 30.2685 20.8453 30.0661 20.8195C29.8182 20.7867 29.3544 20.833 29.3544 21.2396V23.057C29.3544 23.7506 29.6857 23.7969 29.8681 23.8379C30.4168 23.9524 30.9763 24.0065 31.5368 23.9994C32.2797 23.9994 32.926 23.8641 33.4758 23.5936C34.0311 23.3185 34.5258 22.9351 34.931 22.4659C35.3777 21.9435 35.7552 21.3655 36.0542 20.7463C36.3824 20.0811 36.6975 19.3482 36.9995 18.5477C36.9995 18.5477 37.1289 18.186 37.3421 17.5934C36.6935 18.2488 33.6366 21.1506 30.6764 20.8636ZM27.1453 7.28565C27.0177 6.98189 26.8434 6.69999 26.6288 6.45019C26.4149 6.21039 26.1701 6.00021 25.9008 5.82517C25.6102 5.63603 25.3019 5.47569 24.9803 5.34643C24.6518 5.21803 24.314 5.11508 23.9699 5.03849C23.5786 4.95271 23.1816 4.89578 22.7821 4.86814C22.3506 4.83597 21.8655 4.81976 21.327 4.81951C17.7649 4.81951 15.7367 5.94649 15.2421 8.20048C15.0813 8.89989 15.7724 8.94097 15.7724 8.94097H17.9637C18.5358 8.94097 18.5112 8.75644 18.7888 8.23859C18.8888 7.9568 19.0687 7.7103 19.3066 7.52932C19.7271 7.20503 20.3574 7.04286 21.1975 7.0428C22.0059 7.0428 22.5931 7.19949 22.9593 7.51286C23.3255 7.82624 23.541 8.30224 23.6058 8.94097C23.6058 9.68161 23.375 10.1758 22.4807 10.1758C20.3002 10.0965 17.9571 10.3434 16.6374 11.1008C15.3177 11.8583 14.5717 13.339 14.5717 14.9292C14.5717 15.5779 14.6875 16.1458 14.9193 16.6331C15.1438 17.1107 15.4758 17.53 15.8892 17.8579C16.3278 18.2004 16.8306 18.4515 17.3678 18.5963C17.9783 18.7639 18.6092 18.846 19.2423 18.8402C20.1906 18.8402 21.0285 18.7211 21.7559 18.483C22.4831 18.2454 23.6085 17.4617 23.7518 17.3473V17.7651C23.7518 18.1791 23.8777 18.5483 24.3711 18.5483H26.9193C27.4351 18.5483 27.5497 18.1791 27.5497 17.7247V9.86622C27.5542 9.37772 27.5219 8.8896 27.453 8.40597C27.3983 8.02098 27.2949 7.64453 27.1453 7.28565ZM23.6706 14.9906C23.6706 14.9906 23.0126 16.3588 20.6642 16.3588C20.0181 16.3588 19.4929 16.2128 19.0885 15.9209C18.684 15.629 18.4819 15.1746 18.4823 14.5578C18.4823 13.7567 18.811 13.1912 19.4685 12.8614C20.1254 12.5318 21.4406 12.3436 22.4261 12.3667C23.4116 12.3897 23.6706 13.0132 23.6706 13.4436V14.9909V14.9906Z" fill="#5E697B"/>
    </g>
    <defs>
        <clipPath id="clip0_2_1004">
            <rect width="81.6" height="24" fill="white"/>
        </clipPath>
    </defs>
</svg>

