<svg width="20" height="20" viewBox="0 0 20 20" fill="none" xmlns="http://www.w3.org/2000/svg">
<path d="M1.06412 7.38169C2.17162 11.7817 8.21912 17.8334 12.6183 18.9359C13.2121 19.0864 13.8223 19.1631 14.435 19.1642C15.5991 19.1637 16.7454 18.8775 17.7733 18.3309C18.1334 18.1428 18.4443 17.8726 18.6808 17.5422C18.9173 17.2118 19.0728 16.8305 19.1348 16.4289C19.1967 16.0274 19.1634 15.6169 19.0375 15.2306C18.9116 14.8442 18.6966 14.4929 18.41 14.205L16.6716 12.4667C16.3031 12.0983 15.8322 11.8496 15.3203 11.7528C14.8083 11.656 14.2791 11.7158 13.8016 11.9242C13.3461 12.1209 12.9305 12.3997 12.5758 12.7467C12.4275 12.8942 12.1541 12.9175 11.7616 12.8109C10.7326 12.3927 9.79782 11.7726 9.01235 10.9873C8.22688 10.202 7.60666 9.26727 7.18829 8.23836C7.08329 7.84586 7.10495 7.57169 7.25329 7.42419C7.60064 7.06895 7.87973 6.65286 8.07662 6.19669C8.28457 5.71938 8.34404 5.19052 8.24728 4.67895C8.15052 4.16737 7.90203 3.69676 7.53412 3.32836L5.79579 1.59086C5.51116 1.30274 5.16209 1.08644 4.7774 0.959799C4.3927 0.833161 3.98341 0.79982 3.58329 0.862527C3.17863 0.921952 2.79387 1.07661 2.46065 1.31377C2.12744 1.55093 1.8553 1.86382 1.66662 2.22669C0.827204 3.80891 0.612192 5.64855 1.06412 7.38169ZM3.14412 3.00003C3.21214 2.86982 3.31007 2.75759 3.42987 2.67256C3.54967 2.58752 3.68792 2.53211 3.83329 2.51086C3.87931 2.50353 3.92585 2.4999 3.97245 2.50003C4.09243 2.49999 4.21121 2.52376 4.32193 2.56996C4.43265 2.61617 4.5331 2.68389 4.61745 2.76919L6.35495 4.50669C6.48562 4.63583 6.57447 4.80124 6.60998 4.98148C6.6455 5.16173 6.62603 5.34848 6.55412 5.51753C6.44032 5.78883 6.27793 6.03706 6.07495 6.25003C5.77688 6.56759 5.57304 6.96181 5.48621 7.3886C5.39938 7.81538 5.43299 8.25792 5.58329 8.66669C6.18495 10.9167 9.08745 13.8159 11.3333 14.4167C11.7437 14.5667 12.1877 14.5994 12.6156 14.5111C13.0435 14.4228 13.4383 14.2169 13.7558 13.9167C13.9675 13.7139 14.2143 13.5513 14.4841 13.4367C14.6533 13.3646 14.8402 13.345 15.0206 13.3806C15.201 13.4161 15.3666 13.505 15.4958 13.6359L17.2333 15.3734C17.3354 15.4744 17.4121 15.5983 17.457 15.7347C17.5019 15.8712 17.5138 16.0164 17.4916 16.1584C17.47 16.3039 17.414 16.4422 17.3284 16.5619C17.2427 16.6816 17.1299 16.7792 16.9991 16.8467C15.7823 17.5006 14.3621 17.6663 13.0275 17.31C9.24079 16.3675 3.63329 10.76 2.67995 6.97503C2.32414 5.63917 2.4901 4.21797 3.14412 3.00003Z" fill="#E8E8E8"/>
</svg>
