<svg width="20" height="20" viewBox="0 0 20 20" fill="none" xmlns="http://www.w3.org/2000/svg">
<path d="M16.4999 4.50002C16.4223 4.39652 16.3216 4.31252 16.2059 4.25466C16.0902 4.19681 15.9626 4.16669 15.8333 4.16669H12.4999V3.33335C12.4999 2.89133 12.3243 2.4674 12.0118 2.15484C11.6992 1.84228 11.2753 1.66669 10.8333 1.66669H2.49992C2.05789 1.66669 1.63397 1.84228 1.32141 2.15484C1.00885 2.4674 0.833252 2.89133 0.833252 3.33335V14.1667C0.833252 14.3877 0.921049 14.5997 1.07733 14.7559C1.23361 14.9122 1.44557 15 1.66659 15H2.49992C2.49992 15.8841 2.85111 16.7319 3.47623 17.357C4.10135 17.9822 4.9492 18.3334 5.83325 18.3334C6.71731 18.3334 7.56515 17.9822 8.19027 17.357C8.8154 16.7319 9.16658 15.8841 9.16658 15H10.8333C10.8333 15.8841 11.1844 16.7319 11.8096 17.357C12.4347 17.9822 13.2825 18.3334 14.1666 18.3334C15.0506 18.3334 15.8985 17.9822 16.5236 17.357C17.1487 16.7319 17.4999 15.8841 17.4999 15C17.9419 15 18.3659 14.8244 18.6784 14.5119C18.991 14.1993 19.1666 13.7754 19.1666 13.3334V8.33335C19.1666 8.15305 19.1081 7.9776 18.9999 7.83335L16.4999 4.50002ZM5.83325 16.6667C5.50362 16.6667 5.18138 16.5689 4.9073 16.3858C4.63322 16.2027 4.4196 15.9424 4.29345 15.6378C4.16731 15.3333 4.1343 14.9982 4.19861 14.6749C4.26292 14.3516 4.42165 14.0546 4.65474 13.8215C4.88783 13.5884 5.1848 13.4297 5.5081 13.3654C5.8314 13.3011 6.16651 13.3341 6.47106 13.4602C6.7756 13.5864 7.0359 13.8 7.21903 14.0741C7.40217 14.3482 7.49992 14.6704 7.49992 15C7.49992 15.442 7.32432 15.866 7.01176 16.1785C6.6992 16.4911 6.27528 16.6667 5.83325 16.6667ZM10.8333 13.3334H8.70325C8.41442 12.827 7.99678 12.4062 7.49273 12.1134C6.98868 11.8206 6.41615 11.6664 5.83325 11.6664C5.25035 11.6664 4.67782 11.8206 4.17377 12.1134C3.66972 12.4062 3.25209 12.827 2.96325 13.3334H2.49992V8.33335H10.8333V13.3334ZM10.8333 5.00002V6.66669H2.49992V3.33335H10.8333V5.00002ZM14.1666 16.6667C13.8369 16.6667 13.5147 16.5689 13.2406 16.3858C12.9666 16.2027 12.7529 15.9424 12.6268 15.6378C12.5006 15.3333 12.4676 14.9982 12.5319 14.6749C12.5963 14.3516 12.755 14.0546 12.9881 13.8215C13.2212 13.5884 13.5181 13.4297 13.8414 13.3654C14.1647 13.3011 14.4998 13.3341 14.8044 13.4602C15.1089 13.5864 15.3692 13.8 15.5524 14.0741C15.7355 14.3482 15.8333 14.6704 15.8333 15C15.8333 15.442 15.6577 15.866 15.3451 16.1785C15.0325 16.4911 14.6086 16.6667 14.1666 16.6667ZM17.4999 13.3334H17.0366C16.8215 12.9526 16.5324 12.6187 16.1864 12.3513C15.8404 12.0839 15.4444 11.8884 15.0217 11.7762C14.599 11.6641 14.1581 11.6377 13.7251 11.6984C13.292 11.7592 12.8754 11.9059 12.4999 12.13V5.83335H15.4166L17.4999 8.61085V13.3334Z" fill="#E8E8E8"/>
</svg>
