<svg width="24" height="24" viewBox="0 0 24 24" fill="none" xmlns="http://www.w3.org/2000/svg">
    <path d="M3.62447 14.9999C5.00921 16.3866 6.85324 17.2191 8.80917 17.3405C10.7651 17.4618 12.6979 16.8638 14.2435 15.6589L19.5615 20.9769C19.7501 21.1591 20.0027 21.2599 20.2649 21.2576C20.5271 21.2553 20.7779 21.1502 20.9633 20.9648C21.1487 20.7793 21.2539 20.5285 21.2561 20.2663C21.2584 20.0041 21.1576 19.7515 20.9755 19.5629L15.6575 14.2449C16.9158 12.6301 17.5107 10.5961 17.3209 8.5577C17.131 6.51933 16.1708 4.63013 14.636 3.2754C13.1011 1.92067 11.1073 1.20245 9.06114 1.26721C7.01496 1.33198 5.07056 2.17485 3.62447 3.62393C2.87727 4.37076 2.28454 5.25748 1.88013 6.23345C1.47573 7.20942 1.26758 8.2555 1.26758 9.31193C1.26758 10.3684 1.47573 11.4145 1.88013 12.3904C2.28454 13.3664 2.87727 14.2531 3.62447 14.9999V14.9999ZM5.03847 5.03993C6.02705 4.05138 7.3278 3.43618 8.7191 3.29913C10.1104 3.16209 11.5062 3.51168 12.6686 4.28836C13.8311 5.06503 14.6883 6.22073 15.0942 7.55855C15.5001 8.89637 15.4296 10.3335 14.8946 11.6252C14.3597 12.9168 13.3935 13.9831 12.1606 14.6422C10.9277 15.3014 9.5044 15.5126 8.13319 15.24C6.76199 14.9674 5.52772 14.2279 4.64067 13.1473C3.75362 12.0667 3.26868 10.712 3.26847 9.31393C3.26573 8.51951 3.42078 7.73245 3.72462 6.99842C4.02846 6.26439 4.47505 5.598 5.03847 5.03793V5.03993Z" fill="#2B2B2B"/>
</svg>

