<svg width="24" height="24" viewBox="0 0 24 24" fill="none" xmlns="http://www.w3.org/2000/svg">
<path d="M21.9999 4.5C21.9999 4.76522 21.8946 5.01957 21.707 5.20711C21.5195 5.39464 21.2651 5.5 20.9999 5.5H11.9999C11.7347 5.5 11.4803 5.39464 11.2928 5.20711C11.1053 5.01957 10.9999 4.76522 10.9999 4.5C10.9999 4.23478 11.1053 3.98043 11.2928 3.79289C11.4803 3.60536 11.7347 3.5 11.9999 3.5H20.9999C21.2651 3.5 21.5195 3.60536 21.707 3.79289C21.8946 3.98043 21.9999 4.23478 21.9999 4.5ZM20.9999 8.5H13.9999C13.7347 8.5 13.4803 8.60536 13.2928 8.79289C13.1053 8.98043 12.9999 9.23478 12.9999 9.5C12.9999 9.76522 13.1053 10.0196 13.2928 10.2071C13.4803 10.3946 13.7347 10.5 13.9999 10.5H20.9999C21.2651 10.5 21.5195 10.3946 21.707 10.2071C21.8946 10.0196 21.9999 9.76522 21.9999 9.5C21.9999 9.23478 21.8946 8.98043 21.707 8.79289C21.5195 8.60536 21.2651 8.5 20.9999 8.5ZM20.9999 13.5H15.9999C15.7347 13.5 15.4803 13.6054 15.2928 13.7929C15.1053 13.9804 14.9999 14.2348 14.9999 14.5C14.9999 14.7652 15.1053 15.0196 15.2928 15.2071C15.4803 15.3946 15.7347 15.5 15.9999 15.5H20.9999C21.2651 15.5 21.5195 15.3946 21.707 15.2071C21.8946 15.0196 21.9999 14.7652 21.9999 14.5C21.9999 14.2348 21.8946 13.9804 21.707 13.7929C21.5195 13.6054 21.2651 13.5 20.9999 13.5ZM20.9999 18.5H17.9999C17.7347 18.5 17.4803 18.6054 17.2928 18.7929C17.1053 18.9804 16.9999 19.2348 16.9999 19.5C16.9999 19.7652 17.1053 20.0196 17.2928 20.2071C17.4803 20.3946 17.7347 20.5 17.9999 20.5H20.9999C21.2651 20.5 21.5195 20.3946 21.707 20.2071C21.8946 20.0196 21.9999 19.7652 21.9999 19.5C21.9999 19.2348 21.8946 18.9804 21.707 18.7929C21.5195 18.6054 21.2651 18.5 20.9999 18.5ZM5.99992 2C5.7347 2 5.48035 2.10536 5.29281 2.29289C5.10528 2.48043 4.99992 2.73478 4.99992 3V18.586L3.70692 17.293C3.51832 17.1108 3.26571 17.01 3.00352 17.0123C2.74132 17.0146 2.49051 17.1198 2.3051 17.3052C2.11969 17.4906 2.01452 17.7414 2.01224 18.0036C2.00997 18.2658 2.11076 18.5184 2.29292 18.707L5.29292 21.707C5.38581 21.8001 5.49616 21.874 5.61765 21.9244C5.73914 21.9748 5.86938 22.0008 6.00092 22.0008C6.13245 22.0008 6.2627 21.9748 6.38419 21.9244C6.50568 21.874 6.61603 21.8001 6.70892 21.707L9.70892 18.707C9.89108 18.5184 9.99187 18.2658 9.98959 18.0036C9.98731 17.7414 9.88215 17.4906 9.69674 17.3052C9.51133 17.1198 9.26052 17.0146 8.99832 17.0123C8.73612 17.01 8.48352 17.1108 8.29492 17.293L6.99992 18.586V3C6.99992 2.73478 6.89456 2.48043 6.70703 2.29289C6.51949 2.10536 6.26514 2 5.99992 2Z" fill="white"/>
</svg>
