<svg width="24" height="24" viewBox="0 0 24 24" fill="none" xmlns="http://www.w3.org/2000/svg">
<path d="M12 1C9.82441 1 7.69767 1.64514 5.88873 2.85383C4.07979 4.06253 2.66989 5.78049 1.83733 7.79048C1.00477 9.80047 0.786929 12.0122 1.21137 14.146C1.6358 16.2798 2.68345 18.2398 4.22183 19.7782C5.76021 21.3166 7.72022 22.3642 9.85401 22.7886C11.9878 23.2131 14.1995 22.9952 16.2095 22.1627C18.2195 21.3301 19.9375 19.9202 21.1462 18.1113C22.3549 16.3023 23 14.1756 23 12C22.9966 9.08367 21.8365 6.28778 19.7744 4.22563C17.7122 2.16347 14.9163 1.00344 12 1ZM12 21C10.22 21 8.47992 20.4722 6.99987 19.4832C5.51983 18.4943 4.36628 17.0887 3.68509 15.4442C3.0039 13.7996 2.82567 11.99 3.17294 10.2442C3.5202 8.49836 4.37737 6.89471 5.63604 5.63604C6.89472 4.37737 8.49836 3.5202 10.2442 3.17293C11.99 2.82567 13.7996 3.0039 15.4442 3.68508C17.0887 4.36627 18.4943 5.51983 19.4832 6.99987C20.4722 8.47991 21 10.22 21 12C20.9971 14.3861 20.0479 16.6735 18.3608 18.3607C16.6736 20.0479 14.3861 20.9971 12 21ZM17.737 8.824C17.8258 8.92078 17.8946 9.0341 17.9396 9.15749C17.9846 9.28088 18.0048 9.41192 17.9992 9.54313C17.9935 9.67435 17.9621 9.80316 17.9066 9.92221C17.8512 10.0413 17.7728 10.1482 17.676 10.237L11.676 15.737C11.486 15.9112 11.2362 16.0053 10.9785 15.9997C10.7208 15.9941 10.4752 15.8893 10.293 15.707L7.293 12.707C7.1055 12.5194 7.00021 12.2649 7.0003 11.9996C7.0004 11.7344 7.10586 11.48 7.2935 11.2925C7.48115 11.105 7.73559 10.9997 8.00086 10.9998C8.26613 10.9999 8.5205 11.1054 8.708 11.293L11.031 13.616L16.325 8.763C16.5204 8.584 16.7789 8.48989 17.0436 8.50133C17.3084 8.51276 17.5578 8.62882 17.737 8.824Z" fill="#00BE1E"/>
</svg>
