<svg width="101" height="18" viewBox="0 0 101 18" fill="none" xmlns="http://www.w3.org/2000/svg">
    <path fill-rule="evenodd" clip-rule="evenodd" d="M90.8035 12.575H88.5568V4.83226H90.8035C92.7997 4.68488 94.5373 6.18402 94.6847 8.17994C94.6975 8.35717 94.6975 8.53492 94.6847 8.71215C94.7713 10.7584 93.1829 12.487 91.1369 12.5737C91.0231 12.5785 90.9098 12.5777 90.7966 12.5721L90.8037 12.575H90.8035ZM90.8035 14.8955C94.6847 14.8955 97.3773 12.4444 97.3773 8.71215C97.3773 4.98018 94.6788 2.51042 90.8035 2.51042H85.9196V14.8955H90.8035ZM74.5249 8.17381H71.7582V4.83226H74.5156C75.4388 4.73525 76.2655 5.40447 76.3628 6.3274C76.4598 7.2498 75.7906 8.0768 74.8676 8.17381C74.7509 8.18607 74.6331 8.18607 74.5156 8.17381H74.5246H74.5249ZM80.9079 17.9999L76.3636 10.1793C78.0407 9.77475 79.1841 8.22363 79.0748 6.5025C79.1558 4.37359 77.4962 2.58237 75.3673 2.50108C75.2168 2.49522 75.0657 2.49842 74.9153 2.51014H69.1195V14.8952H71.7566V10.4927H73.6883L77.8803 17.9969L80.9079 17.9996V17.9999ZM58.6117 10.4733H54.7491L56.6803 5.14355L58.6114 10.4733H58.6117ZM63.1051 14.8929L58.3332 2.50775H55.0287L50.2371 14.8929H53.2449L54.0245 12.7935H59.3361L60.097 14.8929H63.1048H63.1051ZM40.0678 15.1154C42.2329 15.166 44.2397 13.9859 45.2482 12.0694L42.9762 10.9746C42.4128 12.0681 41.291 12.7613 40.0606 12.7751C37.8147 12.6637 36.0839 10.7534 36.1951 8.50748C36.299 6.41696 37.9703 4.74538 40.0606 4.64224C41.2887 4.6641 42.4067 5.35463 42.9762 6.4428L45.2482 5.32825C44.2403 3.41363 42.2305 2.23964 40.0678 2.30173C36.5298 2.19619 33.5758 4.97858 33.47 8.51627C33.3644 12.0542 36.1468 15.0082 39.685 15.1141C39.8124 15.1178 39.9404 15.1178 40.068 15.1141V15.1154H40.0678ZM27.4657 14.8929V12.5721H21.4865L27.3359 4.61959V2.50241H18.0325V4.82427H23.8822L18.0325 12.7527V14.883L27.4654 14.8931L27.4657 14.8929ZM5.59516 15.1154C9.36445 15.1154 11.185 13.0169 11.185 9.93465V2.50747H8.48656V9.86083C8.48656 11.466 7.18571 12.7671 5.58051 12.7671C3.97503 12.7671 2.67419 11.4658 2.67419 9.86083V2.50747H0V9.95757C0 13.0022 1.81921 15.1196 5.58983 15.1196L5.59516 15.1151V15.1154Z" fill="#5E697B"/>
    <path fill-rule="evenodd" clip-rule="evenodd" d="M100.576 2.27522V2.30507C100.577 3.57847 99.545 4.61173 98.2711 4.6128C96.9972 4.6136 95.9642 3.58167 95.9634 2.30774C95.9626 1.03434 96.9945 0.00106605 98.2684 0H98.2698H100.574L100.576 2.27522H100.576Z" fill="#5E697B"/>
</svg>
