<svg width="20" height="20" viewBox="0 0 20 20" fill="none" xmlns="http://www.w3.org/2000/svg">
<path d="M18.3333 4.16665H15.8333V1.66665C15.8296 1.44677 15.7406 1.23692 15.5851 1.08142C15.4296 0.925926 15.2198 0.836959 14.9999 0.833313H4.99992C4.78024 0.83758 4.57075 0.926747 4.41538 1.08211C4.26002 1.23748 4.17085 1.44697 4.16658 1.66665V4.16665H1.66659C1.44557 4.16665 1.23361 4.25444 1.07733 4.41072C0.921049 4.567 0.833252 4.77897 0.833252 4.99998V18.3333C0.833252 18.5543 0.921049 18.7663 1.07733 18.9226C1.23361 19.0788 1.44557 19.1666 1.66659 19.1666H18.3333C18.5543 19.1666 18.7662 19.0788 18.9225 18.9226C19.0788 18.7663 19.1666 18.5543 19.1666 18.3333V4.99998C19.1666 4.77897 19.0788 4.567 18.9225 4.41072C18.7662 4.25444 18.5543 4.16665 18.3333 4.16665ZM5.83325 3.22331L8.34242 4.89665L5.83325 6.15165V3.22331ZM14.1666 3.22331V6.15165L11.6574 4.89665L14.1666 3.22331ZM12.2499 2.49998L9.99992 3.99998L7.74992 2.49998H12.2499ZM17.4999 17.5H2.49992V5.83331H4.16658V7.49998C4.16658 7.72099 4.25438 7.93295 4.41066 8.08923C4.56694 8.24551 4.7789 8.33331 4.99992 8.33331C5.36825 8.33331 5.36992 8.21415 9.16658 6.34831V9.99998C9.16658 10.221 9.25438 10.433 9.41066 10.5892C9.56694 10.7455 9.7789 10.8333 9.99992 10.8333C10.2209 10.8333 10.4329 10.7455 10.5892 10.5892C10.7455 10.433 10.8333 10.221 10.8333 9.99998V6.34831C14.7166 8.25665 14.6508 8.33331 14.9999 8.33331C15.2209 8.33331 15.4329 8.24551 15.5892 8.08923C15.7455 7.93295 15.8333 7.72099 15.8333 7.49998V5.83331H17.4999V17.5Z" fill="#E8E8E8"/>
</svg>
